<?xml version="1.0" standalone="no"?>
<!DOCTYPE svg PUBLIC "-//W3C//DTD SVG 20010904//EN"
 "http://www.w3.org/TR/2001/REC-SVG-20010904/DTD/svg10.dtd">
<svg version="1.0" xmlns="http://www.w3.org/2000/svg"
 width="730.000000pt" height="730.000000pt" viewBox="0 0 730.000000 730.000000"
 preserveAspectRatio="xMidYMid meet">
<metadata>
Created by potrace 1.14, written by Peter Selinger 2001-2017
</metadata>
<g transform="translate(0.000000,730.000000) scale(0.100000,-0.100000)"
fill="#000000" stroke="none">
<path d="M2835 6540 c3 -5 18 -10 33 -10 15 0 45 -9 66 -19 21 -11 52 -23 69
-26 223 -43 448 -130 611 -233 139 -89 317 -247 407 -360 19 -24 47 -57 62
-73 15 -17 53 -68 83 -114 30 -47 59 -85 63 -85 5 0 15 -15 22 -32 7 -18 44
-72 81 -121 61 -78 108 -149 108 -162 0 -3 -9 -5 -20 -5 -11 0 -20 -4 -20 -10
0 -5 -7 -10 -15 -10 -10 0 -15 7 -13 18 2 12 -5 18 -24 20 -16 2 -28 -1 -28
-6 0 -8 -80 -52 -95 -52 -3 0 -5 7 -5 15 0 25 -22 17 -55 -19 -19 -21 -43 -37
-65 -41 -19 -3 -30 -3 -25 2 12 9 13 23 2 41 -13 19 -37 14 -37 -9 0 -16 -5
-20 -27 -17 -25 3 -28 0 -25 -22 1 -14 -1 -30 -5 -37 -11 -15 -63 -4 -63 13 0
24 -39 15 -98 -22 -31 -20 -58 -41 -60 -45 -2 -5 -15 -9 -28 -9 -31 0 -54 -12
-96 -50 -26 -24 -39 -29 -60 -24 -21 4 -28 2 -28 -10 0 -9 -7 -16 -16 -16 -11
0 -15 -6 -11 -19 3 -15 -1 -21 -16 -23 -13 -2 -30 -20 -46 -50 l-25 -47 -51
52 c-28 29 -64 63 -81 78 -16 14 -63 63 -104 109 -84 95 -262 275 -300 305
-107 84 -179 125 -221 125 -48 0 -41 -16 27 -59 99 -64 234 -204 234 -244 0
-8 7 -28 15 -45 37 -74 8 -286 -47 -343 -7 -8 -24 -30 -38 -49 -28 -41 -120
-134 -175 -176 -21 -16 -94 -63 -163 -105 -131 -78 -163 -108 -101 -95 155 35
238 38 264 13 9 -10 21 -17 27 -17 5 0 33 -23 60 -51 35 -35 56 -48 67 -43 9
3 23 8 32 11 22 6 99 -63 99 -88 0 -18 10 -23 38 -20 8 1 16 -7 19 -19 5 -17
11 -21 32 -17 14 3 50 2 79 -2 43 -6 58 -4 75 10 24 18 93 49 110 49 5 0 -2
-9 -17 -21 -33 -26 -34 -49 -1 -49 25 0 34 -14 16 -24 -5 -4 -11 0 -14 6 -2 7
-7 11 -10 8 -7 -7 -15 -110 -8 -110 8 0 31 50 31 67 0 7 9 3 23 -10 22 -21 22
-22 3 -33 -11 -6 -21 -21 -23 -32 -2 -16 4 -22 28 -27 38 -9 50 2 25 21 -20
14 -13 19 24 15 10 -1 11 1 4 6 -6 4 -13 20 -16 35 -4 23 -1 29 23 37 27 9 29
8 29 -15 0 -24 14 -32 25 -14 4 6 11 7 17 4 6 -4 1 -12 -13 -20 -33 -18 -37
-17 -41 8 -3 19 -4 20 -16 6 -11 -14 -8 -18 18 -29 38 -17 38 -25 0 -44 -31
-16 -37 -29 -20 -40 20 -12 -2 -26 -31 -20 -26 6 -29 4 -29 -17 0 -18 -5 -14
-21 20 -29 58 -48 56 -43 -5 2 -27 3 -65 4 -86 0 -23 4 -36 10 -32 6 4 8 11 4
16 -3 6 3 13 15 16 26 7 27 20 4 26 -10 3 -3 5 15 6 29 1 32 -2 32 -29 0 -23
-5 -31 -25 -36 -14 -3 -25 -11 -25 -16 0 -6 -7 -8 -15 -5 -30 12 -39 -38 -22
-122 9 -43 17 -57 41 -72 17 -11 36 -19 43 -19 21 0 97 39 160 82 125 87 346
205 418 223 72 19 67 14 -55 -69 -146 -98 -462 -266 -501 -266 -8 0 -19 -4
-24 -9 -11 -10 -152 -58 -246 -85 -105 -30 -253 -56 -414 -72 -321 -34 -679
16 -1005 142 -204 79 -400 170 -400 186 0 4 -5 8 -12 8 -15 0 -158 91 -228
145 -75 58 -215 195 -285 280 -32 39 -61 72 -65 75 -33 25 -270 382 -270 406
0 3 -9 18 -19 33 -11 15 -32 58 -47 96 -15 39 -36 85 -46 103 -10 18 -18 41
-18 51 0 10 -3 21 -7 25 -4 3 -8 14 -9 24 -4 28 -52 200 -58 211 -3 5 -8 22
-10 38 -2 15 -8 48 -14 73 -13 57 -13 294 0 357 6 27 10 61 9 76 -1 15 4 37
10 48 17 33 21 242 4 282 -19 45 -52 74 -72 61 -29 -18 -78 -161 -89 -264 -2
-19 -6 -60 -10 -90 -11 -96 -14 -811 -3 -878 5 -34 12 -84 15 -110 7 -59 43
-227 56 -261 5 -14 11 -34 13 -44 28 -136 143 -397 262 -592 30 -49 60 -99 66
-110 7 -11 15 -22 18 -25 3 -3 25 -32 49 -65 65 -88 143 -176 249 -282 85 -84
93 -94 73 -100 -12 -3 -22 -11 -22 -17 0 -7 -11 -23 -25 -36 -14 -13 -25 -29
-25 -37 0 -7 -4 -13 -8 -13 -7 0 -92 -134 -92 -146 0 -3 -20 -45 -44 -94 -24
-49 -41 -92 -38 -95 12 -12 34 -4 28 10 -5 15 5 19 33 15 17 -2 31 18 31 48 0
26 9 28 36 7 26 -20 44 -19 44 3 0 13 2 14 9 4 5 -9 17 -11 36 -6 20 5 26 4
21 -5 -4 -6 -18 -11 -32 -11 -17 0 -24 -5 -24 -20 0 -11 4 -20 10 -20 5 0 7 7
4 15 -7 17 18 19 51 5 19 -8 19 -9 -2 -9 -16 -1 -23 -7 -23 -21 0 -15 -9 -22
-30 -27 -36 -7 -42 -40 -8 -45 21 -3 21 -4 3 -18 -11 -9 -16 -10 -11 -2 5 8 0
12 -17 12 -14 0 -28 7 -31 16 -7 19 2 37 15 29 10 -7 33 44 24 53 -3 3 -16 0
-29 -7 -13 -8 -28 -11 -33 -8 -5 3 -7 -10 -5 -29 3 -22 0 -34 -8 -34 -7 0 -9
8 -5 20 4 14 1 22 -10 26 -24 10 -29 -1 -26 -57 l2 -50 -32 16 c-22 12 -34 14
-42 6 -6 -6 -18 -11 -26 -10 -11 0 -12 2 -3 6 6 2 12 10 12 16 0 6 7 18 16 28
10 11 13 25 9 39 -6 20 -8 21 -26 4 -10 -9 -19 -27 -19 -39 0 -12 -11 -33 -24
-47 -14 -13 -28 -36 -31 -51 -4 -15 -13 -27 -21 -27 -17 0 -19 -36 -2 -46 6
-4 16 0 23 9 12 17 45 24 45 9 0 -4 -5 -13 -11 -19 -8 -8 -2 -13 20 -18 17 -4
36 -15 41 -26 6 -10 15 -19 20 -19 14 0 12 38 -2 42 -7 3 -6 7 5 11 14 5 17 1
17 -23 0 -17 5 -30 10 -30 6 0 10 18 10 40 0 44 5 47 38 24 12 -8 22 -10 22
-5 0 6 8 11 18 11 13 0 14 -2 3 -9 -10 -7 -5 -13 23 -26 20 -9 42 -15 51 -12
8 4 17 2 20 -4 13 -21 -29 -20 -70 1 -48 25 -68 20 -59 -15 6 -24 -10 -43 -21
-25 -11 18 -27 11 -22 -10 3 -12 -1 -23 -10 -29 -13 -7 -13 -9 2 -15 22 -8 36
1 29 18 -4 11 4 14 33 13 21 0 48 3 60 8 15 5 23 3 23 -4 0 -10 -55 -28 -72
-23 -4 1 -12 -7 -18 -18 -7 -13 -21 -20 -40 -20 -30 0 -40 -13 -19 -26 6 -3
16 -1 22 5 16 16 37 14 37 -4 0 -11 8 -13 33 -8 29 6 31 5 19 -10 -8 -9 -20
-13 -28 -10 -8 3 -14 0 -14 -6 0 -6 16 -11 36 -11 31 0 35 -2 24 -15 -14 -17
-4 -55 14 -55 22 0 26 13 8 26 -9 7 -12 14 -5 14 6 0 18 -6 25 -13 7 -8 18
-12 25 -10 6 2 23 -9 37 -24 15 -15 34 -36 44 -46 16 -17 16 -19 0 -31 -13 -9
-15 -20 -10 -39 4 -15 10 -27 15 -27 4 0 12 0 17 0 14 0 12 28 -2 32 -23 8 17
15 42 7 16 -4 19 -7 8 -8 -10 -1 -18 -8 -18 -16 0 -8 -4 -15 -10 -15 -5 0 -10
-10 -10 -22 0 -21 0 -21 21 -2 17 16 22 16 29 4 17 -26 11 -30 -40 -26 -48 4
-50 3 -50 -20 0 -14 -7 -39 -16 -55 -8 -17 -13 -33 -10 -37 3 -3 1 -11 -5 -18
-9 -11 -15 -10 -34 2 -18 12 -28 13 -44 4 -25 -13 -28 -45 -5 -54 23 -9 24 -8
24 13 0 15 7 19 35 18 40 -1 41 -3 20 -23 -8 -9 -15 -20 -15 -25 0 -12 17 -11
25 1 5 8 11 7 21 -1 7 -6 20 -9 29 -5 9 3 19 -3 26 -16 11 -20 10 -21 -37 -16
-27 3 -41 4 -31 1 9 -2 17 -9 17 -14 0 -16 -19 -10 -32 10 -6 10 -18 17 -25
14 -23 -9 -14 -31 19 -47 39 -20 48 -20 48 -1 0 28 27 15 33 -15 6 -25 11 -30
36 -30 15 0 41 -2 57 -4 16 -2 23 -1 16 1 -11 4 -10 9 4 24 9 10 12 19 6 19
-6 0 -14 -5 -17 -10 -11 -18 -60 -11 -73 10 -10 17 -10 21 3 27 9 3 28 -1 42
-8 21 -11 27 -11 30 -1 6 17 33 15 33 -3 0 -11 10 -13 50 -8 39 4 50 3 50 -8
0 -9 -12 -14 -38 -14 -43 0 -56 -12 -36 -33 12 -11 18 -11 29 -2 12 10 18 10
30 0 20 -16 19 -28 -1 -26 -9 0 -20 -9 -25 -22 -8 -20 -6 -22 19 -17 26 5 26
5 4 -6 -16 -9 -29 -9 -46 -1 -21 9 -23 8 -19 -9 4 -15 0 -19 -20 -19 -42 0
-57 10 -57 40 0 27 2 28 40 23 33 -5 40 -3 40 11 0 14 -4 15 -21 6 -16 -9 -25
-8 -37 2 -15 12 -25 14 -47 9 -3 0 -1 -9 4 -20 13 -24 4 -33 -20 -20 -23 12
-25 -1 -4 -40 15 -30 17 -31 123 -16 27 4 42 2 42 -4 0 -6 -9 -11 -20 -11 -11
0 -20 -4 -20 -10 0 -5 10 -10 23 -10 17 0 19 -2 7 -10 -18 -11 -13 -16 23 -25
22 -6 27 -4 28 11 0 16 2 15 12 -5 10 -20 8 -26 -12 -42 -23 -19 -23 -19 -2
-19 12 0 21 5 21 10 0 6 7 10 15 10 19 0 19 20 0 47 -15 22 -5 41 15 28 6 -3
13 1 16 9 3 9 11 13 16 10 7 -4 4 -10 -5 -16 -9 -5 -14 -14 -11 -21 6 -18 44
-19 44 -2 0 8 6 12 13 9 8 -3 11 -18 9 -44 -4 -35 -7 -40 -31 -41 -14 -1 -30
-1 -35 0 -6 1 -21 -1 -35 -4 -25 -6 -25 -7 -7 -21 19 -13 19 -14 -7 -14 -55 0
-25 -15 36 -18 34 -1 63 -7 65 -12 2 -6 10 -10 17 -10 13 0 27 -28 30 -62 1
-9 -7 -19 -17 -21 -13 -4 -20 2 -24 21 -15 68 -15 68 -30 47 -12 -17 -14 -17
-14 -2 0 9 -4 17 -10 17 -5 0 -10 -4 -10 -9 0 -5 -12 -11 -27 -13 -18 -2 -29
-10 -31 -22 -3 -15 0 -17 14 -11 35 15 78 11 82 -7 2 -13 -3 -18 -17 -18 -12
0 -21 5 -21 10 0 6 -7 10 -15 10 -20 0 -19 -13 4 -34 10 -9 21 -30 25 -47 3
-19 12 -29 23 -29 14 0 15 2 5 9 -11 7 -10 10 3 15 25 9 32 7 39 -11 3 -10 9
-25 13 -33 5 -13 4 -13 -11 -1 -9 8 -19 11 -23 7 -10 -10 18 -34 50 -41 27 -7
27 -7 23 36 -3 33 -8 44 -20 43 -9 -1 -16 2 -16 7 0 5 -7 9 -15 9 -23 0 -17
14 12 27 23 11 29 10 45 -7 10 -10 18 -32 18 -48 0 -27 2 -28 51 -29 34 0 52
4 56 13 3 8 11 14 19 14 8 0 11 -6 8 -15 -4 -8 -1 -22 6 -30 11 -13 6 -14 -41
-10 -30 3 -60 8 -66 10 -8 3 -13 -5 -13 -19 0 -20 -4 -23 -27 -19 l-28 5 29
-25 c32 -26 77 -27 55 -1 -9 11 -5 14 22 14 31 -1 32 -2 16 -14 -14 -11 -15
-15 -5 -19 7 -3 3 -6 -10 -6 -14 -1 -22 -6 -20 -13 9 -25 29 -18 67 21 38 40
61 51 61 31 0 -5 -4 -10 -10 -10 -5 0 -10 -4 -10 -10 0 -18 17 -10 30 15 7 14
19 25 25 25 18 0 45 -34 45 -57 0 -12 7 -24 16 -27 22 -9 24 -8 24 9 0 8 9 15
20 15 11 0 20 -4 20 -10 0 -5 -5 -10 -11 -10 -8 0 -7 -5 1 -15 15 -18 32 -2
23 22 -4 9 5 13 31 13 20 0 36 -5 36 -10 0 -6 -8 -10 -17 -8 -12 2 -18 -4 -18
-16 0 -14 -10 -22 -32 -28 -19 -5 -33 -15 -33 -23 0 -19 14 -19 30 0 7 8 19
15 27 15 7 0 16 7 19 15 3 8 14 17 24 20 11 3 22 15 25 26 10 31 54 25 66 -9
8 -24 14 -28 39 -24 17 2 30 9 30 14 0 6 -7 8 -15 4 -9 -3 -15 0 -15 9 0 8 7
15 15 15 10 0 15 10 15 30 0 34 -11 37 -53 15 -28 -15 -62 -10 -51 7 3 5 12 7
19 5 6 -3 25 3 41 14 16 10 37 19 47 19 10 0 15 5 12 10 -4 6 -11 7 -17 4 -7
-4 -8 -2 -4 4 4 7 18 12 32 12 15 0 23 -4 19 -11 -4 -6 2 -13 14 -16 38 -10
23 -26 -19 -20 -22 3 -40 1 -40 -4 0 -5 5 -9 10 -9 6 0 8 -11 4 -25 -5 -22 -3
-25 20 -25 31 0 34 -13 7 -26 -17 -8 -17 -11 -5 -22 12 -11 15 -10 21 5 8 22
28 43 40 43 5 0 18 -7 29 -16 12 -10 14 -14 4 -11 -30 9 -47 -10 -44 -48 3
-32 1 -35 -12 -25 -20 18 -29 5 -16 -24 9 -19 8 -27 -4 -37 -13 -11 -13 -14 6
-24 21 -11 21 -11 -5 -23 -14 -7 -24 -16 -20 -21 3 -5 1 -12 -5 -16 -5 -3 -10
3 -10 14 0 12 -8 21 -22 24 -22 4 -22 4 -2 6 29 1 37 26 23 68 -7 22 -17 33
-29 33 -10 0 -22 5 -26 11 -5 8 1 10 19 7 16 -3 28 0 31 8 9 24 -51 16 -94
-11 -22 -14 -46 -25 -55 -25 -8 0 -15 -5 -15 -10 0 -17 24 -22 51 -11 13 5 17
10 9 11 -13 0 -13 1 0 10 22 14 28 12 35 -11 7 -20 32 -21 28 0 -2 6 3 11 11
11 9 0 12 -7 9 -21 -5 -19 -11 -21 -48 -16 -49 7 -62 0 -37 -19 16 -12 16 -13
0 -14 -9 0 -39 5 -67 12 -51 11 -78 5 -51 -12 8 -6 27 -10 43 -10 15 0 27 -4
27 -8 0 -9 84 -52 101 -52 17 0 -1 21 -29 32 -23 10 -24 12 -8 16 10 2 22 -1
26 -8 4 -6 11 -11 16 -10 5 0 11 -7 13 -17 4 -22 19 -33 49 -33 12 0 22 -4 22
-9 0 -5 10 -11 23 -14 12 -2 31 -8 42 -12 20 -7 20 -6 1 9 -19 16 -19 16 7 16
19 0 25 4 21 14 -4 11 -12 13 -31 5 -20 -7 -28 -6 -39 8 -11 16 -9 21 12 39
15 13 24 32 24 50 0 63 12 103 28 96 12 -4 14 -1 9 12 -5 12 -3 16 5 14 18 -6
16 -43 -1 -43 -8 0 -16 -6 -18 -12 -3 -7 2 -13 11 -13 9 0 16 4 16 9 0 11 39
25 47 17 12 -12 -21 -36 -48 -36 -18 0 -29 -5 -29 -14 0 -17 27 -29 35 -16 7
11 95 2 109 -11 6 -5 -3 -11 -22 -15 -17 -4 -37 -13 -43 -20 -14 -17 -39 -18
-39 -2 0 7 -10 2 -22 -10 -21 -21 -22 -24 -6 -33 18 -10 22 -59 5 -70 -5 -4
21 -16 58 -28 64 -20 115 -20 115 0 0 5 6 9 14 9 16 0 31 34 21 50 -3 5 -1 10
4 10 6 0 16 -9 23 -20 7 -11 23 -20 35 -20 13 0 23 -4 23 -9 0 -11 -29 -23
-40 -16 -4 3 -10 -2 -13 -10 -7 -17 25 -29 53 -20 15 5 19 12 15 26 -5 13 -2
19 10 19 9 0 19 9 22 19 3 11 12 22 22 25 9 3 3 4 -12 2 -16 -2 -25 0 -20 4 4
5 35 10 68 12 33 2 68 8 78 12 12 6 17 4 17 -7 0 -17 40 -30 67 -21 15 5 15 4
3 -5 -8 -6 -11 -11 -6 -11 5 0 1 -9 -9 -20 -24 -27 -10 -41 46 -45 24 -2 47
-4 52 -4 4 -1 7 -8 7 -17 0 -13 -7 -15 -29 -11 -26 6 -51 -7 -51 -25 0 -4 14
-8 30 -8 20 0 30 -5 30 -15 0 -25 -56 -19 -63 6 -4 14 -11 20 -21 16 -8 -3
-20 1 -26 9 -10 11 -9 14 4 14 17 0 22 25 6 35 -5 3 -26 3 -45 -1 -25 -4 -35
-11 -31 -20 4 -9 -7 -20 -29 -31 -19 -9 -35 -19 -35 -23 0 -11 275 -50 435
-61 248 -17 673 -7 815 20 136 25 312 73 393 108 l59 24 96 -30 c136 -42 159
-47 322 -72 189 -28 489 -24 672 10 322 59 640 203 1031 467 61 41 119 81 128
88 19 16 135 97 158 111 9 6 18 12 21 15 3 3 30 23 60 45 30 22 60 44 65 51 6
6 30 26 55 45 84 64 290 257 290 273 0 16 -28 2 -77 -41 -30 -27 -67 -56 -82
-67 -31 -22 36 43 138 134 40 36 77 74 82 85 14 32 32 58 53 75 14 12 16 19 7
24 -8 5 -26 -8 -49 -34 -75 -85 -142 -153 -146 -149 -2 2 29 40 70 84 41 44
74 83 74 88 0 4 -26 -17 -57 -48 -104 -100 -118 -112 -151 -140 -44 -37 -54
-23 -11 16 l34 31 -35 -23 c-19 -13 -37 -26 -40 -29 -3 -3 -25 -21 -50 -40
-25 -19 -47 -37 -50 -40 -7 -7 -192 -144 -207 -154 -30 -18 -9 11 24 34 20 14
41 30 47 35 6 6 47 37 91 70 91 67 293 233 314 258 12 15 11 17 -3 17 -10 0
-14 -4 -11 -10 3 -5 0 -10 -7 -10 -8 0 -27 -12 -44 -28 -27 -24 -103 -89 -129
-110 -34 -27 -34 -18 0 13 91 84 165 159 165 167 0 8 -65 -34 -92 -60 -54 -53
-83 -66 -33 -14 28 28 55 52 62 52 6 0 14 9 18 19 3 10 15 21 25 24 11 3 20
12 20 19 0 22 -56 15 -88 -11 -15 -11 -38 -26 -51 -31 -13 -6 -29 -17 -35 -25
-11 -14 -155 -128 -196 -155 -12 -8 -28 -21 -36 -27 -15 -16 -24 -16 -24 -3 0
5 14 22 31 37 18 16 37 33 43 38 28 25 114 82 143 94 18 7 31 16 29 20 -4 7
14 24 129 118 98 80 140 121 133 128 -6 7 -20 -3 -100 -72 -27 -24 -60 -50
-74 -59 -14 -10 -39 -30 -56 -46 -32 -30 -95 -67 -85 -50 4 5 25 22 49 38 23
16 67 54 98 84 30 31 66 63 79 72 13 9 21 22 19 29 -3 9 -8 8 -18 -3 -8 -8
-28 -23 -45 -34 -30 -19 -43 -29 -99 -74 -17 -14 -58 -46 -91 -70 -33 -24 -64
-48 -70 -52 -31 -26 -133 -95 -147 -101 -40 -15 -12 12 75 70 99 67 104 71
243 183 51 41 92 79 93 83 0 5 11 18 25 31 30 25 35 49 9 39 -10 -3 -45 -26
-78 -51 -33 -24 -71 -49 -85 -55 -24 -10 -179 -114 -190 -127 -13 -15 -72 -52
-76 -47 -3 3 28 28 68 56 88 61 105 74 227 175 123 100 125 102 113 110 -6 3
-31 -11 -55 -31 -170 -142 -296 -232 -273 -194 6 10 -35 2 -44 -8 -3 -3 -21
-15 -40 -26 -19 -10 -60 -38 -90 -60 -30 -23 -62 -45 -70 -48 -8 -4 -58 -34
-110 -68 -52 -34 -108 -69 -125 -79 -16 -10 -59 -36 -95 -59 -36 -23 -72 -44
-80 -48 -8 -4 -32 -17 -53 -30 -96 -60 -303 -166 -324 -166 -7 0 -13 -4 -13
-7 0 -4 -28 -18 -62 -30 -35 -13 -68 -27 -75 -32 -12 -10 -36 -17 -168 -54
-106 -30 -203 -52 -262 -61 -24 -3 -43 -10 -43 -14 0 -12 47 -11 71 2 17 9 64
19 154 33 61 10 221 60 287 89 18 9 92 41 163 73 72 31 132 60 135 64 3 4 44
27 91 53 136 73 457 273 668 416 41 28 77 49 79 46 6 -6 26 8 -168 -121 -247
-163 -296 -194 -305 -194 -5 0 -16 -7 -26 -16 -9 -8 -84 -54 -165 -101 -362
-208 -584 -296 -889 -352 -83 -15 -236 -33 -241 -28 -4 4 78 24 120 29 11 2
-77 3 -195 4 -119 0 -245 6 -284 13 -38 7 -76 13 -82 13 -19 2 -16 12 10 40
141 156 183 205 248 297 82 114 152 243 194 356 14 39 32 84 39 100 8 17 17
46 21 65 4 19 11 40 15 45 4 6 13 35 20 65 7 30 16 60 21 66 5 6 6 14 2 17 -3
4 -2 12 3 19 6 7 11 27 13 43 2 17 7 35 11 40 5 6 11 28 14 50 2 22 14 81 26
130 60 246 96 538 86 690 -8 123 -11 150 -21 198 -8 41 1 46 52 26 15 -6 57
-15 93 -19 100 -14 133 -22 157 -37 12 -8 27 -12 32 -8 6 3 20 1 32 -6 28 -15
151 -20 146 -6 -2 6 -32 11 -68 13 -76 2 -121 17 -113 37 3 8 -3 17 -12 21
-16 6 -15 8 4 22 24 16 42 11 42 -11 0 -23 20 -28 41 -9 25 22 24 34 -1 27
-11 -3 -20 -3 -20 1 0 3 9 15 20 26 16 16 20 17 20 5 0 -18 4 -18 48 -6 20 6
32 6 32 0 0 -5 -7 -9 -15 -9 -12 0 -12 -3 2 -20 18 -21 58 -27 68 -10 3 6 15
10 26 10 10 0 19 5 19 10 0 6 16 10 35 10 19 0 34 -3 34 -7 -5 -29 2 -33 32
-18 28 15 29 18 14 29 -17 12 -17 13 1 20 16 6 16 9 4 16 -10 7 -11 10 -2 10
6 0 12 5 12 10 0 6 -8 10 -17 10 -15 0 -14 2 3 14 13 10 21 11 25 4 11 -17 39
-1 39 22 0 13 -7 20 -20 20 -11 0 -20 5 -20 10 0 6 10 8 24 4 18 -4 33 3 64
30 40 37 79 49 69 22 -7 -19 9 -32 51 -41 20 -4 32 -3 32 4 0 6 7 11 15 11 8
0 15 9 15 19 0 25 15 34 41 26 15 -5 18 -10 9 -20 -9 -10 -7 -16 9 -24 17 -9
22 -8 31 9 6 11 17 20 25 20 8 0 15 6 15 14 0 8 6 17 13 20 8 3 7 8 -5 16 -21
13 -24 40 -4 40 9 0 17 15 21 40 8 45 10 46 31 25 17 -17 59 -21 49 -5 -3 6
-1 10 4 10 11 0 13 -5 15 -32 1 -7 -10 -15 -23 -18 -14 -3 -27 -12 -29 -19 -3
-10 2 -12 21 -7 14 3 29 2 32 -4 8 -13 45 -13 45 0 0 6 11 10 24 10 13 0 29 7
36 15 22 27 29 18 31 -38 0 -10 7 -21 15 -24 8 -3 14 -11 14 -19 0 -17 5 -17
31 -3 11 5 17 14 14 20 -4 5 3 9 14 9 17 0 21 -6 21 -30 0 -37 12 -38 31 -4
12 24 12 28 -9 44 -12 10 -22 23 -22 28 0 6 -13 25 -28 42 -26 28 -31 29 -61
19 -17 -6 -35 -8 -38 -5 -13 12 -11 51 3 74 16 25 10 46 -11 38 -8 -3 -11 2
-8 14 3 10 -3 30 -13 45 -17 25 -22 27 -68 22 -28 -3 -60 -9 -70 -13 -16 -6
-18 -4 -13 9 4 10 -1 26 -10 37 -21 24 -33 26 -33 5 0 -8 -8 -15 -17 -15 -15
0 -14 -3 5 -18 22 -17 22 -19 8 -47 -12 -23 -23 -30 -46 -30 -30 -1 -41 10
-18 17 19 7 -1 28 -27 28 -29 0 -34 7 -41 62 -5 34 -2 48 11 61 9 9 13 17 9
17 -3 0 -1 7 6 15 10 12 8 16 -13 24 -33 13 -42 28 -26 47 6 8 9 18 5 22 -9 8
-38 -27 -31 -38 4 -7 -42 -20 -71 -20 -20 0 -17 19 4 27 39 14 65 69 39 85 -8
5 -5 14 8 29 11 12 15 19 8 15 -7 -4 -17 3 -24 15 -19 36 -72 79 -96 79 -12 0
-28 -7 -37 -15 -8 -8 -17 -15 -20 -15 -3 0 -3 7 0 15 4 9 0 15 -10 15 -9 0
-16 -4 -16 -9 0 -5 -11 -11 -25 -13 -22 -5 -24 -2 -19 18 4 15 2 24 -5 24 -20
0 -11 15 18 32 35 19 43 14 34 -20 -5 -22 -3 -24 16 -19 11 3 21 1 21 -5 0 -5
5 -6 10 -3 19 12 10 40 -19 56 -23 14 -28 22 -24 43 5 25 -10 36 -22 16 -9
-14 -25 -12 -25 3 0 6 15 19 33 27 29 13 30 15 10 18 -13 2 -23 10 -23 18 0 8
-4 14 -10 14 -5 0 -10 9 -10 20 0 11 -6 20 -12 20 -7 0 -4 6 7 12 30 16 31 18
15 28 -10 7 -11 10 -2 10 6 0 12 5 12 10 0 15 -49 4 -71 -16 -11 -10 -17 -19
-15 -22 8 -8 -22 -32 -39 -32 -9 0 -19 -9 -22 -20 -3 -11 -13 -20 -23 -20 -10
0 -20 -7 -24 -15 -3 -8 -10 -15 -15 -15 -5 0 -3 13 5 30 11 20 20 27 32 23 12
-4 11 0 -5 16 -26 25 -29 41 -9 41 16 0 31 34 21 49 -11 18 16 23 29 5 9 -12
15 -14 20 -5 4 6 16 9 26 6 22 -7 60 22 53 41 -2 7 8 20 24 29 23 14 24 15 6
12 -13 -3 -26 -1 -29 4 -10 17 -24 9 -24 -14 0 -15 -9 -28 -24 -35 -28 -12
-41 -5 -24 15 6 7 8 16 5 19 -3 3 2 14 11 24 8 11 17 28 19 39 2 17 -5 21 -45
27 -26 4 -41 9 -34 11 6 3 12 11 12 19 0 9 -5 12 -12 8 -20 -13 -83 -5 -95 12
-20 27 -44 10 -37 -26 5 -21 3 -30 -6 -30 -8 0 -22 -7 -32 -16 -16 -15 -25
-15 -78 -4 -42 9 -59 17 -56 26 3 7 -2 15 -10 18 -8 3 -14 17 -14 31 0 14 -4
25 -10 25 -5 0 -10 7 -10 15 0 22 31 54 46 48 8 -3 14 -1 14 5 0 9 -32 22 -56
22 -13 0 -48 -74 -49 -104 0 -12 -8 -22 -18 -24 -14 -3 -17 1 -12 21 4 14 2
34 -4 45 -8 15 -8 21 1 24 18 6 1 55 -22 61 -10 3 -24 -1 -31 -9 -17 -21 -34
-17 -47 12 -7 14 -17 22 -23 18 -8 -4 -7 -9 2 -15 7 -4 10 -11 6 -15 -3 -4
-13 -2 -20 5 -8 6 -22 8 -31 5 -13 -5 -17 -2 -14 9 5 27 -16 21 -32 -9 -8 -16
-22 -34 -30 -41 -22 -18 -70 -16 -92 4 -17 15 -19 15 -32 -2 -21 -29 -49 -12
-41 24 4 21 2 30 -9 34 -21 8 -20 27 2 28 10 0 12 3 5 6 -7 2 -13 11 -13 19 0
9 -10 14 -28 14 -27 0 -28 1 -30 63 -13 343 -36 512 -72 512 -11 0 -13 -25
-10 -130 6 -233 1 -453 -12 -461 -4 -3 -5 -11 -1 -19 3 -8 2 -23 -1 -32 -6
-15 -8 -15 -16 -3 -8 13 -10 12 -10 -2 0 -19 -19 -31 -62 -42 -22 -5 -28 -3
-28 10 0 12 -3 14 -13 6 -7 -6 -22 -9 -34 -6 -12 3 -32 -1 -45 -10 -30 -20
-59 -6 -38 19 10 12 10 19 1 28 -9 9 -14 9 -21 -2 -7 -12 -11 -11 -26 3 -16
17 -18 17 -27 -1 -6 -10 -11 -20 -13 -22 -4 -5 -49 48 -104 124 -78 107 -217
289 -247 322 -15 17 -43 50 -61 72 -44 53 -187 196 -248 246 -75 63 -202 148
-279 189 -90 48 -279 125 -320 131 -25 4 -195 44 -215 51 -31 11 -152 15 -145
4z m1649 -1176 c3 -8 2 -12 -4 -9 -6 3 -10 10 -10 16 0 14 7 11 14 -7z m291
-144 c3 -5 2 -10 -4 -10 -5 0 -13 5 -16 10 -3 6 -2 10 4 10 5 0 13 -4 16 -10z
m765 -136 c0 -8 -9 -14 -20 -14 -11 0 -20 -4 -20 -10 0 -5 -8 -10 -17 -10 -13
0 -11 6 12 30 28 29 45 31 45 4z m71 -7 c-5 -5 -19 -6 -32 -2 -22 7 -22 8 -4
21 14 10 22 11 32 2 9 -7 10 -15 4 -21z m-76 -37 c3 -5 1 -10 -4 -10 -6 0 -11
5 -11 10 0 6 2 10 4 10 3 0 8 -4 11 -10z m356 -90 c23 0 24 -17 2 -42 -15 -17
-53 -24 -66 -12 -3 3 -1 19 5 35 7 20 15 28 25 25 8 -3 23 -6 34 -6z m-101
-50 c-20 -13 -33 -13 -25 0 3 6 14 10 23 10 15 0 15 -2 2 -10z m-2277 -47 c9
-9 -22 -43 -40 -43 -19 0 -16 38 5 43 27 7 28 7 35 0z m-5 -97 c3 -12 -1 -17
-10 -14 -7 3 -15 13 -16 22 -3 12 1 17 10 14 7 -3 15 -13 16 -22z m1108 -72
c-4 -9 -9 -15 -11 -12 -3 3 -3 13 1 22 4 9 9 15 11 12 3 -3 3 -13 -1 -22z
m291 4 c-3 -8 -6 -5 -6 6 -1 11 2 17 5 13 3 -3 4 -12 1 -19z m1178 0 c4 -13 7
-27 6 -31 -1 -4 6 -10 14 -13 9 -4 15 -19 15 -41 l0 -35 -30 32 c-20 22 -35
30 -48 26 -26 -9 -51 20 -32 37 10 9 11 9 5 -1 -5 -10 -1 -13 16 -10 16 2 25
10 25 23 3 33 4 35 13 35 5 0 12 -10 16 -22z m-1915 -32 c0 -3 -4 -8 -10 -11
-5 -3 -10 -1 -10 4 0 6 5 11 10 11 6 0 10 -2 10 -4z m-160 -26 c0 -5 -4 -10
-10 -10 -5 0 -10 5 -10 10 0 6 5 10 10 10 6 0 10 -4 10 -10z m551 -43 c-10 -9
-11 -8 -5 6 3 10 9 15 12 12 3 -3 0 -11 -7 -18z m-301 3 c0 -5 -9 -10 -21 -10
-11 0 -17 5 -14 10 3 6 13 10 21 10 8 0 14 -4 14 -10z m-96 -32 c-7 -11 -34
-10 -34 1 0 6 9 9 19 8 11 0 17 -5 15 -9z m380 -3 c-4 -8 -8 -15 -10 -15 -2 0
-4 7 -4 15 0 8 4 15 10 15 5 0 7 -7 4 -15z m-294 -14 c0 -14 -5 -18 -20 -14
-11 3 -20 12 -20 19 0 8 9 14 20 14 13 0 20 -7 20 -19z m-753 -33 c-3 -8 -6
-5 -6 6 -1 11 2 17 5 13 3 -3 4 -12 1 -19z m447 13 c3 -5 -3 -11 -13 -14 -14
-3 -18 -1 -14 9 6 16 19 18 27 5z m56 -1 c0 -5 -4 -10 -10 -10 -5 0 -10 5 -10
10 0 6 5 10 10 10 6 0 10 -4 10 -10z m77 4 c-3 -3 -12 -4 -19 -1 -8 3 -5 6 6
6 11 1 17 -2 13 -5z m73 -4 c0 -5 -4 -10 -10 -10 -5 0 -10 5 -10 10 0 6 5 10
10 10 6 0 10 -4 10 -10z m359 -27 c-34 -55 -47 -63 -81 -46 -35 18 -36 25 -2
17 18 -5 29 -1 39 12 11 15 14 16 15 4 0 -8 10 0 21 18 29 45 36 40 8 -5z
m-865 11 c9 -22 -3 -32 -14 -14 -12 19 -12 30 -1 30 5 0 12 -7 15 -16z m806
-4 c0 -11 -4 -20 -9 -20 -11 0 -22 26 -14 34 12 12 23 5 23 -14z m-210 0 c0
-5 -7 -7 -15 -4 -8 4 -15 8 -15 10 0 2 7 4 15 4 8 0 15 -4 15 -10z m120 0
c-20 -13 -40 -13 -40 0 0 6 12 10 28 10 21 0 24 -2 12 -10z m-845 -20 c3 -6
-1 -7 -9 -4 -18 7 -21 14 -7 14 6 0 13 -4 16 -10z m516 0 c23 -13 25 -30 2
-30 -13 0 -12 -4 6 -19 22 -19 35 -72 16 -68 -5 1 -9 12 -7 24 2 20 -1 22 -34
17 -21 -2 -42 -8 -48 -13 -19 -15 -76 -24 -76 -12 0 6 8 11 18 11 10 0 27 7
38 15 10 8 27 15 37 15 17 0 21 8 17 48 -2 25 3 27 31 12z m274 0 c-3 -5 -10
-10 -16 -10 -5 0 -9 5 -9 10 0 6 7 10 16 10 8 0 12 -4 9 -10z m-521 -13 c22
-16 11 -47 -16 -47 -17 0 -18 2 -8 16 11 13 10 16 -8 21 -12 3 -22 9 -22 14 0
13 34 11 54 -4z m161 3 c3 -5 -1 -10 -9 -10 -8 0 -18 5 -21 10 -3 6 1 10 9 10
8 0 18 -4 21 -10z m235 6 c0 -2 -7 -6 -15 -10 -8 -3 -15 -1 -15 4 0 6 7 10 15
10 8 0 15 -2 15 -4z m185 -16 c4 -6 -5 -10 -19 -10 -14 0 -26 -5 -26 -11 0 -5
-5 -7 -11 -4 -6 5 -4 12 8 21 22 16 40 18 48 4z m-480 -10 c3 -5 2 -10 -4 -10
-5 0 -13 5 -16 10 -3 6 -2 10 4 10 5 0 13 -4 16 -10z m243 -7 c-5 -24 -25 -27
-31 -3 -4 15 0 20 15 20 13 0 18 -6 16 -17z m-448 3 c0 -11 -19 -15 -25 -6 -3
5 1 10 9 10 9 0 16 -2 16 -4z m315 -6 c-3 -5 -10 -10 -16 -10 -5 0 -9 5 -9 10
0 6 7 10 16 10 8 0 12 -4 9 -10z m265 0 c0 -5 -4 -10 -10 -10 -5 0 -10 5 -10
10 0 6 5 10 10 10 6 0 10 -4 10 -10z m1890 -5 c-7 -8 -8 -15 -3 -15 5 0 9 -10
10 -22 2 -20 1 -21 -8 -5 -6 9 -18 17 -27 18 -10 0 -12 3 -4 6 6 2 12 11 12
19 0 8 7 14 16 14 14 0 14 -3 4 -15z m-2680 -15 c0 -5 -4 -10 -10 -10 -5 0
-10 5 -10 10 0 6 5 10 10 10 6 0 10 -4 10 -10z m910 -5 c0 -8 -2 -15 -4 -15
-2 0 -6 7 -10 15 -3 8 -1 15 4 15 6 0 10 -7 10 -15z m-803 -17 c-3 -8 -6 -5
-6 6 -1 11 2 17 5 13 3 -3 4 -12 1 -19z m269 7 c14 -13 13 -15 -4 -15 -11 0
-22 7 -26 15 -3 8 -1 15 5 15 6 0 17 -7 25 -15z m374 5 c0 -5 -2 -10 -4 -10
-3 0 -8 5 -11 10 -3 6 -1 10 4 10 6 0 11 -4 11 -10z m110 0 c0 -5 -7 -7 -15
-4 -8 4 -15 8 -15 10 0 2 7 4 15 4 8 0 15 -4 15 -10z m117 -4 c-4 -11 -47 -16
-47 -6 0 12 12 19 31 17 11 -1 18 -6 16 -11z m598 -36 c10 -46 0 -36 -14 14
-5 22 -6 35 -2 30 5 -5 12 -25 16 -44z m-865 2 c-8 -3 -18 -10 -22 -16 -11
-17 -21 0 -13 23 5 18 9 19 28 9 17 -9 19 -12 7 -16z m-80 8 c0 -5 -4 -10 -10
-10 -5 0 -10 5 -10 10 0 6 5 10 10 10 6 0 10 -4 10 -10z m-256 -33 c1 -21 -2
-22 -54 -18 l-55 4 44 11 c25 7 46 17 49 24 6 18 15 6 16 -21z m586 27 c0 -3
-7 -12 -15 -20 -12 -13 -15 -13 -15 -1 0 7 3 17 7 20 8 8 23 9 23 1z m817 -21
c-9 -9 -19 -14 -23 -11 -10 10 6 28 24 28 15 0 15 -1 -1 -17z m943 7 c0 -5 -4
-10 -10 -10 -5 0 -10 5 -10 10 0 6 5 10 10 10 6 0 10 -4 10 -10z m-2540 -9 c0
-9 -33 -21 -58 -21 -10 0 -10 3 0 15 14 16 58 20 58 6z m255 -1 c3 -5 -1 -10
-9 -10 -9 0 -16 5 -16 10 0 6 4 10 9 10 6 0 13 -4 16 -10z m1435 0 c0 -5 -4
-10 -9 -10 -6 0 -13 5 -16 10 -3 6 1 10 9 10 9 0 16 -4 16 -10z m-1354 -15
c-10 -8 -24 -11 -29 -8 -6 4 -2 10 9 14 31 12 40 9 20 -6z m297 8 c-7 -2 -19
-2 -25 0 -7 3 -2 5 12 5 14 0 19 -2 13 -5z m817 -3 c0 -5 -5 -10 -11 -10 -5 0
-7 5 -4 10 3 6 8 10 11 10 2 0 4 -4 4 -10z m-1700 -20 c0 -5 -5 -10 -11 -10
-5 0 -7 5 -4 10 3 6 8 10 11 10 2 0 4 -4 4 -10z m1669 -17 c0 -25 -1 -26 -9
-8 -12 27 -12 35 0 35 6 0 10 -12 9 -27z m168 19 c9 -5 1 -12 -22 -21 -33 -12
-39 -20 -36 -48 2 -15 -8 -16 -29 -3 -10 6 -11 10 -2 10 6 0 12 5 12 10 0 6
-9 10 -19 10 -31 0 -51 11 -51 27 0 13 3 13 15 3 8 -7 15 -9 15 -5 0 4 6 2 13
-4 10 -8 21 -7 40 2 15 6 27 15 27 20 0 9 22 9 37 -1z m-1667 -12 c13 -8 13
-10 -2 -10 -9 0 -20 5 -23 10 -8 13 5 13 25 0z m356 -2 c-9 -5 -23 -5 -32 0
-12 6 -7 9 16 9 23 0 28 -3 16 -9z m164 -9 c0 -6 -4 -7 -10 -4 -5 3 -10 11
-10 16 0 6 5 7 10 4 6 -3 10 -11 10 -16z m682 -31 c-6 -6 -7 0 -4 19 5 21 7
23 10 9 2 -10 0 -22 -6 -28z m-1002 17 c10 -12 9 -16 -5 -21 -16 -6 -34 9 -35
29 0 13 27 8 40 -8z m1595 6 c3 -5 1 -12 -5 -16 -5 -3 -10 1 -10 9 0 18 6 21
15 7z m-1984 -18 c12 -16 12 -17 -2 -6 -9 7 -19 10 -22 6 -4 -3 -7 -1 -7 5 0
17 16 15 31 -5z m444 7 c-3 -5 -10 -10 -16 -10 -5 0 -9 5 -9 10 0 6 7 10 16
10 8 0 12 -4 9 -10z m135 6 c0 -3 -4 -8 -10 -11 -5 -3 -10 -1 -10 4 0 6 5 11
10 11 6 0 10 -2 10 -4z m1347 -10 c-4 -10 3 -16 21 -19 21 -3 19 -4 -10 -6
-20 0 -40 4 -44 11 -4 7 -3 8 5 4 6 -4 14 0 17 8 3 9 8 16 11 16 3 0 3 -6 0
-14z m-1697 -10 c0 -2 -9 -6 -20 -9 -11 -3 -20 -1 -20 4 0 5 9 9 20 9 11 0 20
-2 20 -4z m1482 -28 c-9 -9 -12 -7 -12 12 0 19 3 21 12 12 9 -9 9 -15 0 -24z
m853 22 c3 -5 2 -10 -4 -10 -5 0 -13 5 -16 10 -3 6 -2 10 4 10 5 0 13 -4 16
-10z m455 -28 c-6 -2 -8 -8 -5 -13 4 -5 -1 -6 -9 -3 -9 3 -16 12 -16 19 0 17
23 25 32 11 4 -6 3 -13 -2 -14z m-2880 8 c0 -13 -30 -13 -50 0 -11 7 -7 10 18
10 17 0 32 -4 32 -10z m1740 -6 c0 -8 -5 -12 -10 -9 -6 4 -8 11 -5 16 9 14 15
11 15 -7z m-1692 -6 c20 -20 14 -27 -13 -15 -14 7 -25 15 -25 20 0 11 25 8 38
-5z m72 -12 c0 -2 -11 -3 -24 -2 -14 0 -22 6 -19 13 4 9 10 10 24 2 10 -5 19
-11 19 -13z m1578 13 c-2 -6 -8 -10 -13 -10 -5 0 -11 4 -13 10 -2 6 4 11 13
11 9 0 15 -5 13 -11z m-1543 -18 c-3 -6 -11 -11 -17 -11 -6 0 -6 6 2 15 14 17
26 13 15 -4z m35 -2 c0 -5 -4 -9 -10 -9 -5 0 -10 7 -10 16 0 8 5 12 10 9 6 -3
10 -10 10 -16z m110 17 c0 -3 -4 -8 -10 -11 -5 -3 -10 -1 -10 4 0 6 5 11 10
11 6 0 10 -2 10 -4z m1790 -6 c0 -5 -2 -10 -4 -10 -3 0 -8 5 -11 10 -3 6 -1
10 4 10 6 0 11 -4 11 -10z m145 0 c3 -5 1 -10 -4 -10 -6 0 -11 5 -11 10 0 6 2
10 4 10 3 0 8 -4 11 -10z m580 0 c3 -5 -3 -10 -14 -10 -12 0 -21 5 -21 10 0 6
6 10 14 10 8 0 18 -4 21 -10z m-2965 -20 c0 -4 -9 -6 -21 -3 -15 4 -17 8 -8
14 14 8 29 3 29 -11z m150 0 c0 -11 5 -20 11 -20 5 0 7 -5 4 -10 -5 -8 -11 -7
-21 1 -7 6 -11 15 -8 20 3 5 0 9 -5 9 -6 0 -11 5 -11 10 0 6 7 10 15 10 8 0
15 -9 15 -20z m1580 -17 c0 -32 -5 -28 -14 10 -4 19 -3 26 4 22 5 -3 10 -18
10 -32z m864 15 c19 -32 29 -78 16 -78 -19 0 -75 65 -72 83 5 24 39 21 56 -5z
m476 -2 c0 -29 -22 -49 -45 -39 -16 6 -16 7 5 15 16 6 21 14 17 28 -3 13 0 20
9 20 8 0 14 -10 14 -24z m-2690 -5 c0 -19 -17 -38 -25 -29 -7 7 7 48 16 48 5
0 9 -9 9 -19z m2410 15 c0 -11 -19 -15 -25 -6 -3 5 1 10 9 10 9 0 16 -2 16 -4z
m-2735 -16 c-3 -5 2 -9 12 -8 35 3 54 -2 48 -12 -4 -6 -12 -7 -18 -3 -7 5 -21
8 -31 8 -11 0 -21 6 -23 13 -3 6 0 12 7 12 6 0 8 -4 5 -10z m2110 -6 c19 -14
19 -15 -10 -10 -16 2 -31 5 -33 5 -6 2 9 21 16 21 4 0 16 -8 27 -16z m-77 -6
c-6 -18 -28 -21 -28 -4 0 9 7 16 16 16 9 0 14 -5 12 -12z m232 2 c0 -5 -8 -10
-17 -10 -15 0 -16 2 -3 10 19 12 20 12 20 0z m70 0 c0 -5 -7 -10 -16 -10 -8 0
-12 5 -9 10 3 6 10 10 16 10 5 0 9 -4 9 -10z m527 -15 c-14 -30 -47 -34 -47
-6 0 12 8 21 23 24 12 2 25 5 29 6 3 0 1 -10 -5 -24z m-2890 9 c-3 -3 -12 -4
-19 -1 -8 3 -5 6 6 6 11 1 17 -2 13 -5z m1950 -29 c-9 -31 -37 -50 -37 -25 0
6 5 10 12 10 9 0 9 3 0 12 -18 18 -15 26 11 31 12 2 23 5 24 6 0 0 -4 -15 -10
-34z m-117 -34 c0 -6 5 -11 10 -11 6 0 10 -8 10 -19 0 -10 7 -25 17 -32 15
-13 16 -11 10 16 -3 17 -4 24 -1 18 3 -7 14 -13 25 -13 23 0 25 -15 3 -24 -8
-3 -12 -10 -9 -16 3 -5 1 -10 -5 -10 -6 0 -8 -6 -5 -12 4 -7 0 -5 -8 5 -8 9
-22 17 -31 17 -9 0 -20 8 -23 17 -4 10 -17 28 -30 41 -27 27 -30 44 -7 35 14
-5 16 -2 10 23 l-8 29 21 -27 c12 -14 21 -31 21 -37z m375 49 c-3 -5 -11 -10
-16 -10 -6 0 -7 5 -4 10 3 6 11 10 16 10 6 0 7 -4 4 -10z m-471 -9 c3 -5 -3
-11 -14 -14 -20 -5 -26 3 -13 16 9 10 21 9 27 -2z m-1534 -11 c0 -13 -41 -29
-57 -23 -6 3 -9 11 -6 19 6 16 63 19 63 4z m96 -11 c3 -6 1 -16 -5 -22 -8 -8
-11 -6 -11 7 0 13 -5 16 -20 11 -11 -4 -20 -2 -20 4 0 14 47 14 56 0z m2629 0
c10 -15 -1 -23 -20 -15 -9 3 -13 10 -10 16 8 13 22 13 30 -1z m-2572 -6 c-7
-2 -19 -2 -25 0 -7 3 -2 5 12 5 14 0 19 -2 13 -5z m1699 -33 c6 0 20 7 29 16
17 16 21 15 51 0 l33 -17 -34 5 c-28 5 -32 4 -22 -8 14 -17 1 -28 -19 -16 -8
5 -24 7 -36 4 -14 -4 -23 0 -27 10 -7 18 -57 22 -74 5 -6 -6 -17 -8 -23 -4
-19 12 9 25 52 25 20 0 40 6 45 13 6 8 9 5 11 -10 2 -13 8 -23 14 -23z m153
30 c3 -5 2 -10 -4 -10 -5 0 -13 5 -16 10 -3 6 -2 10 4 10 5 0 13 -4 16 -10z
m-455 -25 c0 -2 -9 -3 -20 -2 -11 1 -20 7 -20 14 0 11 5 11 20 3 11 -6 20 -13
20 -15z m925 6 c-3 -6 -11 -11 -16 -11 -5 0 -4 6 3 14 14 16 24 13 13 -3z
m-2533 -26 c-5 -31 -23 -36 -44 -14 -19 20 -8 35 19 25 10 -4 14 -2 10 8 -4
10 -1 13 7 10 8 -3 11 -15 8 -29z m102 26 c-2 -2 1 -10 7 -17 15 -18 3 -34
-27 -34 -25 0 -33 23 -13 36 8 5 7 9 -1 14 -8 5 -3 7 13 7 14 -1 23 -4 21 -6z
m2536 -45 c-8 -26 -17 -36 -32 -36 -17 0 -18 3 -8 15 6 8 9 23 5 34 -4 15 -1
20 17 23 31 5 32 4 18 -36z m-568 -24 c-4 -11 -6 -11 -13 0 -5 7 -9 22 -9 32
0 19 0 19 14 1 8 -11 11 -25 8 -33z m-432 34 c0 -11 -19 -15 -25 -6 -3 5 1 10
9 10 9 0 16 -2 16 -4z m777 -12 c-3 -3 -12 -4 -19 -1 -8 3 -5 6 6 6 11 1 17
-2 13 -5z m-497 -13 c0 -10 -30 -24 -37 -17 -3 3 -2 9 2 15 8 13 35 15 35 2z
m555 0 c3 -5 1 -12 -5 -16 -5 -3 -10 1 -10 9 0 18 6 21 15 7z m85 -12 c0 -5
-7 -9 -15 -9 -9 0 -12 6 -9 15 6 15 24 11 24 -6z m-2517 -20 c-7 -7 -22 -9
-40 -4 -24 7 -25 9 -8 13 11 2 24 8 30 13 14 14 32 -8 18 -22z m2737 18 c0
-15 -20 -37 -32 -37 -5 0 -8 8 -6 18 5 28 38 45 38 19z m-2873 -19 c-3 -8 -6
-5 -6 6 -1 11 2 17 5 13 3 -3 4 -12 1 -19z m1893 12 c0 -5 -2 -10 -4 -10 -3 0
-8 5 -11 10 -3 6 -1 10 4 10 6 0 11 -4 11 -10z m625 0 c3 -5 17 -10 31 -10 24
0 24 -1 9 -30 -18 -34 -50 -42 -40 -10 5 16 2 20 -19 20 -38 0 -33 35 6 39 4
1 10 -3 13 -9z m-174 -10 c5 0 9 -4 9 -10 0 -14 -13 -12 -36 6 -17 14 -17 15
-1 10 10 -3 23 -6 28 -6z m-2280 -43 c-10 -10 -51 8 -51 23 0 5 8 10 18 13 20
4 46 -23 33 -36z m1989 33 c0 -5 -4 -10 -10 -10 -5 0 -10 5 -10 10 0 6 5 10
10 10 6 0 10 -4 10 -10z m-40 -8 c0 -13 -12 -22 -22 -16 -10 6 -1 24 13 24 5
0 9 -4 9 -8z m684 -1 c3 -4 3 -11 0 -14 -8 -8 -34 3 -34 14 0 11 27 12 34 0z
m-559 -21 c-3 -5 -11 -10 -16 -10 -6 0 -7 5 -4 10 3 6 11 10 16 10 6 0 7 -4 4
-10z m23 -17 c-2 -12 5 -19 21 -21 13 -2 21 0 18 5 -3 4 15 9 39 10 32 2 44
-2 44 -12 0 -8 6 -18 14 -22 15 -9 28 -63 15 -63 -5 0 -9 7 -9 15 0 19 -48 65
-67 65 -8 0 -17 -9 -20 -21 -4 -12 -11 -18 -20 -15 -8 3 -20 6 -28 6 -13 0
-24 37 -17 58 6 18 13 14 10 -5z m-238 -3 c8 -5 11 -10 5 -10 -5 0 -17 5 -25
10 -8 5 -10 10 -5 10 6 0 17 -5 25 -10z m120 -21 c0 -5 -12 -9 -27 -9 -26 0
-26 1 -8 14 20 14 35 12 35 -5z m-100 -9 c0 -5 -4 -10 -10 -10 -5 0 -10 5 -10
10 0 6 5 10 10 10 6 0 10 -4 10 -10z m-719 -19 c35 -10 77 -22 93 -25 l28 -7
-5 -67 c-3 -37 -8 -83 -11 -102 -4 -19 -9 -53 -12 -75 -2 -22 -6 -51 -9 -65
-2 -14 -7 -45 -10 -69 -3 -25 -9 -49 -11 -53 -3 -5 -8 -32 -10 -60 -3 -29 -9
-57 -13 -62 -5 -6 -8 -18 -8 -26 0 -8 -12 -68 -27 -134 -69 -304 -246 -664
-417 -850 -34 -36 -71 -78 -83 -93 -11 -15 -37 -42 -56 -60 -19 -17 -57 -53
-85 -78 -27 -25 -103 -87 -169 -136 l-118 -91 -24 23 c-28 27 -31 46 -6 52 11
3 8 5 -9 6 -15 0 -29 7 -32 14 -3 9 3 13 16 13 12 -1 23 6 25 16 3 14 -1 16
-27 8 -23 -6 -33 -4 -45 9 -9 10 -16 24 -16 33 0 8 -9 23 -20 33 -12 11 -20
28 -18 39 2 12 -5 28 -15 36 -22 19 -83 194 -96 275 -5 34 -7 97 -4 142 3 52
1 83 -6 87 -28 18 0 186 30 186 5 0 9 7 9 15 0 19 -10 19 -38 -1 -23 -16 -41
-49 -50 -89 -8 -37 -3 -286 8 -363 5 -42 11 -123 12 -180 2 -86 -1 -105 -16
-120 -16 -16 -18 -16 -27 1 -13 22 -54 21 -104 -3 -46 -22 -71 -25 -81 -9 -5
8 -9 7 -15 -4 -11 -19 -107 -43 -120 -30 -6 6 5 14 30 21 39 12 39 13 36 55
-2 23 -5 44 -6 47 -1 3 -1 8 0 13 0 4 -6 7 -15 7 -8 0 -13 -4 -10 -9 8 -13
-33 -37 -76 -45 -25 -5 -38 -3 -41 6 -4 10 -7 10 -18 1 -18 -18 -4 -28 40 -28
33 0 36 -1 22 -12 -15 -12 -14 -14 3 -24 18 -11 18 -12 -5 -25 -31 -17 -42
-17 -36 0 3 8 -4 22 -15 33 -15 13 -22 15 -25 6 -6 -16 -25 -16 -58 -1 -18 8
-25 19 -25 40 0 25 -3 28 -24 22 -17 -4 -27 0 -34 12 -8 15 -13 16 -26 5 -8
-7 -21 -11 -28 -8 -7 2 -29 -1 -48 -8 -19 -6 -73 -13 -119 -14 -47 -1 -91 -7
-98 -13 -22 -18 -91 -3 -120 27 -24 23 -25 29 -14 46 11 19 10 20 -24 18 -24
-3 -39 1 -45 11 -8 12 -15 13 -41 3 -32 -12 -49 -10 -49 8 0 5 12 9 28 9 26 1
26 1 -8 14 -19 7 -44 17 -54 21 -15 6 -17 5 -11 -5 5 -9 4 -11 -4 -6 -6 4 -9
12 -5 17 3 6 -5 7 -22 3 -19 -5 -25 -4 -20 5 4 6 2 11 -3 11 -6 0 -11 4 -11
10 0 5 31 -4 69 -20 69 -29 171 -60 200 -60 29 0 -5 17 -98 49 -52 18 -115 42
-140 54 -64 29 -174 115 -202 157 -13 19 -37 51 -53 70 -27 31 -53 82 -107
210 -11 25 -24 53 -30 63 -9 16 -7 18 8 14 10 -3 45 -13 78 -23 33 -9 69 -20
80 -24 11 -5 31 -11 45 -13 14 -3 72 -14 130 -25 189 -37 291 -45 499 -39 191
6 309 19 441 50 69 17 222 62 255 77 11 4 34 13 50 18 113 36 402 182 505 255
63 45 155 112 160 117 3 3 21 17 40 32 122 93 333 310 419 431 19 26 38 47 43
47 4 0 8 5 8 11 0 6 11 25 25 43 14 18 25 36 25 39 0 12 42 77 50 77 4 0 36
-9 71 -19z m809 -10 c0 -5 -11 -11 -24 -13 -17 -4 -23 -1 -19 9 6 14 43 18 43
4z m100 -6 c0 -8 -4 -15 -10 -15 -5 0 -10 7 -10 15 0 8 5 15 10 15 6 0 10 -7
10 -15z m25 -26 c-4 -5 5 -9 19 -9 14 0 26 -4 26 -9 0 -5 -18 -8 -40 -7 -22 0
-40 2 -40 3 0 12 26 41 32 37 5 -3 6 -10 3 -15z m-93 -3 c10 -7 15 -16 11 -20
-3 -3 -13 0 -22 8 -9 8 -25 16 -36 19 -16 4 -15 5 5 6 14 0 33 -6 42 -13z
m312 -31 c18 -14 17 -15 -25 -15 -41 1 -43 2 -25 15 24 18 26 18 50 0z m-355
-9 c-2 -2 -18 -7 -34 -11 l-30 -6 30 14 c27 13 45 14 34 3z m274 -1 c-2 -5 -7
-10 -13 -9 -5 1 -25 2 -42 3 -32 3 -32 3 -8 11 32 11 66 8 63 -5z m-209 -16
c-3 -5 -11 -9 -19 -9 -8 0 -16 4 -19 9 -3 5 5 9 19 9 14 0 22 -4 19 -9z m201
-19 c-3 -5 -14 -10 -23 -9 -14 0 -13 2 3 9 27 11 27 11 20 0z m-265 -20 c0 -5
-7 -10 -15 -10 -8 0 -15 5 -15 10 0 6 7 10 15 10 8 0 15 -4 15 -10z m-4515
-490 c3 -5 1 -10 -4 -10 -6 0 -11 5 -11 10 0 6 2 10 4 10 3 0 8 -4 11 -10z
m32 -106 c-3 -3 -12 -4 -19 -1 -8 3 -5 6 6 6 11 1 17 -2 13 -5z m128 -12 c-3
-3 -11 0 -18 7 -9 10 -8 11 6 5 10 -3 15 -9 12 -12z m-150 -22 c4 -6 -10 -10
-37 -9 -40 1 -41 2 -13 9 43 11 43 11 50 0z m-39 -45 c-3 -8 0 -15 7 -16 7 0
-1 -5 -17 -10 -32 -9 -50 -4 -22 7 9 3 16 12 16 20 0 8 5 14 11 14 6 0 9 -7 5
-15z m50 -12 c27 -36 36 -73 19 -73 -7 0 -15 13 -18 29 -3 16 -13 36 -22 44
-17 17 -19 27 -7 27 5 0 17 -12 28 -27z m-66 -63 c0 -5 -2 -10 -4 -10 -3 0 -8
5 -11 10 -3 6 -1 10 4 10 6 0 11 -4 11 -10z m42 -14 c17 -23 17 -24 -5 -30
-12 -3 -26 -1 -31 4 -7 7 -5 10 3 10 8 0 10 7 6 20 -9 27 6 25 27 -4z m-252
-45 c0 -21 -26 -36 -36 -20 -6 11 13 39 27 39 5 0 9 -9 9 -19z m320 -11 c6
-11 7 -20 2 -20 -10 0 -32 21 -32 32 0 16 19 8 30 -12z m-49 -27 c-10 -4 -10
-7 -1 -13 6 -4 -9 -6 -34 -5 -25 0 -49 5 -53 10 -4 4 0 5 10 2 27 -10 67 3 67
21 0 13 2 14 13 3 10 -11 9 -14 -2 -18z m624 -21 c-10 -2 -25 3 -33 12 -15 14
-13 15 17 3 23 -8 28 -13 16 -15z m-640 -52 c8 -16 15 -37 15 -46 0 -14 -2
-14 -16 -3 -9 8 -12 15 -6 17 15 5 3 32 -14 32 -15 0 -19 12 -7 23 10 10 11 9
28 -23z m55 15 c7 -9 8 -15 2 -15 -5 0 -12 7 -16 15 -3 8 -4 15 -2 15 2 0 9
-7 16 -15z m-237 -45 c6 0 0 -10 -13 -22 -16 -15 -25 -18 -28 -10 -2 7 -8 10
-13 6 -13 -8 -11 10 3 24 7 7 19 10 26 7 8 -3 19 -5 25 -5z m262 0 c3 -5 -3
-10 -14 -10 -12 0 -21 5 -21 10 0 6 6 10 14 10 8 0 18 -4 21 -10z m-115 -14
c0 -3 -4 -8 -10 -11 -5 -3 -10 -1 -10 4 0 6 5 11 10 11 6 0 10 -2 10 -4z
m-280 -15 c0 -7 -12 -13 -47 -21 -4 -1 -9 3 -11 9 -2 5 9 11 25 14 15 2 29 5
31 6 1 0 2 -3 2 -8z m-80 -20 c0 -12 -28 -22 -34 -12 -3 5 -3 11 1 15 9 9 33
7 33 -3z m118 -18 c2 -8 -5 -13 -17 -13 -21 0 -35 13 -24 24 10 10 36 3 41
-11z m262 11 c0 -13 -29 -34 -35 -24 -3 5 -18 11 -33 11 -20 1 -17 4 13 9 22
4 43 8 48 9 4 0 7 -2 7 -5z m105 -4 c3 -6 -1 -7 -9 -4 -11 4 -16 0 -16 -10 0
-9 -7 -16 -16 -16 -8 0 -12 5 -9 10 3 6 1 10 -5 10 -6 0 -8 5 -5 10 8 13 52
13 60 0z m-288 -17 c-15 -2 -25 -9 -22 -14 8 -12 65 -12 65 0 0 18 35 -1 47
-25 14 -30 1 -31 -27 -2 -11 12 -20 16 -20 9 0 -14 -66 -5 -88 12 -18 14 3 27
43 25 l30 -1 -28 -4z m-144 -15 c30 1 38 -22 11 -32 -26 -10 -64 -7 -64 5 0 7
-8 18 -17 26 -16 13 -15 14 12 7 17 -4 42 -7 58 -6z m454 -14 c-3 -3 -12 -4
-19 -1 -8 3 -5 6 6 6 11 1 17 -2 13 -5z m-133 -29 c-10 -8 -23 -14 -29 -14 -5
0 -1 6 9 14 11 8 24 15 30 15 5 0 1 -7 -10 -15z m196 -9 c0 -3 -4 -8 -10 -11
-5 -3 -10 -1 -10 4 0 6 5 11 10 11 6 0 10 -2 10 -4z m-254 -33 c-10 -10 -19 5
-10 18 6 11 8 11 12 0 2 -7 1 -15 -2 -18z m191 11 c-3 -3 -12 -4 -19 -1 -8 3
-5 6 6 6 11 1 17 -2 13 -5z m-313 -55 c-31 -12 -40 -9 -20 6 10 8 24 11 29 8
6 -4 2 -10 -9 -14z m76 -9 c0 -5 -5 -10 -11 -10 -5 0 -7 5 -4 10 3 6 8 10 11
10 2 0 4 -4 4 -10z m26 -55 c2 -21 -2 -25 -16 -20 -13 4 -22 -1 -30 -15 -6
-11 -16 -20 -22 -20 -6 0 -6 6 3 16 11 14 10 18 -6 27 -17 9 -15 12 20 23 22
6 42 12 45 13 3 1 6 -10 6 -24z m99 -35 c0 -21 -28 -19 -31 3 -2 12 3 17 14
15 9 -2 17 -10 17 -18z m35 5 c0 -8 -4 -15 -9 -15 -5 0 -11 7 -15 15 -3 9 0
15 9 15 8 0 15 -7 15 -15z m60 -15 c25 -20 25 -20 -17 -20 -5 0 -8 3 -8 8 0 4
-4 13 -8 20 -12 18 5 14 33 -8z m-150 -20 c6 -11 18 -20 26 -20 8 0 13 -4 9
-9 -3 -5 0 -11 7 -14 7 -2 4 -2 -7 1 -11 2 -30 5 -41 6 -13 0 -20 6 -16 14 2
7 -4 19 -14 27 -18 14 -18 14 3 15 12 0 27 -9 33 -20z m1000 10 c0 -5 -4 -10
-10 -10 -5 0 -10 5 -10 10 0 6 5 10 10 10 6 0 10 -4 10 -10z m-1060 -40 c0 -5
-7 -10 -16 -10 -8 0 -12 5 -9 10 3 6 10 10 16 10 5 0 9 -4 9 -10z m289 -21
c-8 -5 -26 -9 -41 -9 -18 0 -28 -5 -28 -15 0 -8 -4 -15 -10 -15 -32 0 10 47
45 52 37 5 52 -2 34 -13z m-209 -24 c0 -8 8 -15 19 -15 10 0 24 -7 31 -15 9
-10 9 -15 1 -15 -16 0 -14 -16 4 -34 8 -8 15 -17 15 -21 0 -9 -49 29 -50 38 0
4 -11 19 -25 33 -28 28 -32 44 -10 44 8 0 15 -7 15 -15z m1070 0 c11 -13 10
-14 -4 -9 -9 3 -16 10 -16 15 0 13 6 11 20 -6z m-990 -15 c0 -5 -5 -10 -11
-10 -5 0 -7 5 -4 10 3 6 8 10 11 10 2 0 4 -4 4 -10z m1025 0 c3 -5 1 -10 -4
-10 -6 0 -11 5 -11 10 0 6 2 10 4 10 3 0 8 -4 11 -10z m-985 -135 c0 -8 -7
-15 -15 -15 -26 0 -18 20 13 29 1 1 2 -6 2 -14z m6004 -77 c-10 -13 -27 -29
-36 -36 -9 -7 -23 -18 -30 -25 -7 -7 -42 -35 -78 -62 -36 -28 -71 -56 -78 -62
-7 -7 -18 -13 -24 -13 -5 0 36 38 93 84 57 46 115 95 129 109 31 31 50 35 24
5z m-5908 -1 c4 -4 -5 -7 -20 -7 -33 0 -54 -40 -27 -52 13 -5 12 -7 -4 -7 -29
-1 -45 18 -45 52 0 27 1 28 45 25 24 -3 48 -7 51 -11z m-116 -44 c0 -18 -18
-16 -37 2 -8 8 -20 13 -26 9 -7 -3 -4 1 7 10 14 12 22 12 37 3 10 -6 19 -17
19 -24z m198 15 c16 -16 15 -33 0 -20 -13 10 -18 12 -39 12 -5 0 -7 5 -4 10 8
14 28 13 43 -2z m-66 -61 c-2 -5 -11 -6 -20 -2 -13 5 -12 1 3 -15 16 -18 17
-20 2 -14 -12 4 -17 1 -17 -10 0 -9 -8 -16 -17 -16 -17 -1 -17 -1 0 -14 9 -7
17 -15 17 -18 0 -7 -109 -43 -114 -37 -8 8 6 59 15 54 4 -3 6 -12 2 -20 -6
-17 -2 -18 21 -9 13 5 14 9 5 20 -9 11 -7 14 10 14 11 0 21 5 21 10 0 6 7 10
15 10 17 0 20 16 4 25 -7 5 -5 13 6 25 9 10 13 24 9 36 -6 15 -2 14 18 -6 13
-14 22 -29 20 -33z m5683 34 c-32 -28 -167 -122 -171 -118 -3 3 5 12 18 21 13
10 50 37 83 61 33 25 64 45 70 45 6 0 6 -3 0 -9z m-5869 -16 c-16 -17 -36 -20
-36 -6 0 8 17 16 43 20 5 0 2 -6 -7 -14z m296 -42 c5 -38 -8 -93 -21 -93 -17
0 -18 13 -4 52 12 36 12 42 -3 59 -16 18 -16 19 3 19 17 0 22 -8 25 -37z
m-217 17 c-4 -6 -18 -9 -33 -8 -20 2 -27 -2 -32 -21 -6 -24 -32 -35 -60 -25
-13 5 -12 7 2 15 9 5 15 16 12 23 -6 16 16 22 79 25 24 0 36 -3 32 -9z m329
-26 c7 -19 2 -18 -19 6 -16 17 -16 20 -3 15 9 -4 19 -13 22 -21z m-54 -4 c0
-5 -4 -10 -10 -10 -5 0 -10 5 -10 10 0 6 5 10 10 10 6 0 10 -4 10 -10z m2114
-13 c8 -7 14 -25 14 -40 l0 -27 -20 25 c-11 14 -26 25 -34 25 -20 0 -17 18 4
23 9 3 18 5 20 6 2 0 9 -5 16 -12z m-2276 -52 c-12 -27 -34 -35 -24 -9 3 9 6
20 6 25 0 5 7 9 15 9 12 0 13 -4 3 -25z m252 -25 c-8 -5 -22 -9 -30 -9 -10 0
-8 3 5 9 27 12 43 12 25 0z m5365 0 c-3 -5 -27 -24 -53 -41 l-47 -31 45 40
c43 39 69 54 55 32z m-280 -10 c-3 -5 -12 -10 -18 -10 -7 0 -6 4 3 10 19 12
23 12 15 0z m-5215 -84 c0 -17 -4 -26 -8 -21 -4 6 -19 16 -34 24 l-28 14 23
22 c19 19 23 20 35 6 6 -8 12 -29 12 -45z m5740 59 c0 -2 -10 -10 -22 -16 -21
-11 -22 -11 -9 4 13 16 31 23 31 12z m-5680 -34 c0 -5 6 -11 13 -14 6 -2 1 -2
-12 0 -19 3 -22 1 -16 -14 15 -35 17 -63 6 -63 -6 0 -11 8 -11 19 0 10 -7 24
-15 31 -8 7 -15 16 -15 21 0 5 7 9 15 9 8 0 15 5 15 10 0 6 5 10 10 10 6 0 10
-4 10 -9z m5320 -15 c0 -2 -7 -7 -16 -10 -8 -3 -12 -2 -9 4 6 10 25 14 25 6z
m-5424 -53 c-7 -7 -26 7 -26 19 0 6 6 6 15 -2 9 -7 13 -15 11 -17z m368 11 c6
-15 4 -15 -11 -3 -10 7 -20 15 -22 16 -2 2 3 3 11 3 9 0 19 -7 22 -16z m1891
-14 c3 -5 1 -10 -4 -10 -6 0 -11 5 -11 10 0 6 2 10 4 10 3 0 8 -4 11 -10z
m-2225 -10 c0 -5 5 -9 11 -7 6 1 13 -2 15 -8 4 -10 -104 -70 -112 -62 -6 5 68
86 79 86 4 1 7 -3 7 -9z m340 -20 c0 -20 -1 -20 -25 -4 -14 9 -25 18 -25 20 0
2 11 4 25 4 18 0 25 -5 25 -20z m217 14 c-3 -3 -12 -4 -19 -1 -8 3 -5 6 6 6
11 1 17 -2 13 -5z m-449 -16 c16 -16 15 -28 -2 -28 -7 0 -16 9 -19 20 -6 23 3
26 21 8z m432 -18 c0 -5 -2 -10 -4 -10 -3 0 -8 5 -11 10 -3 6 -1 10 4 10 6 0
11 -4 11 -10z m510 -10 c0 -5 -5 -10 -11 -10 -5 0 -7 5 -4 10 3 6 8 10 11 10
2 0 4 -4 4 -10z m-910 -30 c0 -5 -7 -10 -16 -10 -8 0 -12 5 -9 10 3 6 10 10
16 10 5 0 9 -4 9 -10z m206 -13 c10 3 12 0 8 -10 -11 -29 -29 -25 -30 7 -1 17
0 23 3 14 2 -10 10 -15 19 -11z m224 -3 c0 -14 -4 -23 -10 -19 -6 4 -8 11 -5
16 4 5 -2 9 -12 10 -16 0 -16 1 2 9 11 5 21 9 23 9 1 1 2 -11 2 -25z m1670 16
c0 -5 -2 -10 -4 -10 -2 0 -12 -3 -22 -7 -16 -6 -17 -5 -4 10 17 19 30 22 30 7z
m-1960 -10 c0 -5 -2 -10 -4 -10 -3 0 -8 5 -11 10 -3 6 -1 10 4 10 6 0 11 -4
11 -10z m127 4 c-3 -3 -12 -4 -19 -1 -8 3 -5 6 6 6 11 1 17 -2 13 -5z m598
-32 c-7 -8 -35 7 -35 18 0 6 7 6 20 -2 10 -7 17 -14 15 -16z m-831 12 c9 -3
14 -10 11 -15 -7 -10 -35 0 -35 12 0 11 3 11 24 3z m5004 -20 c-5 -4 -103 -14
-165 -17 -79 -4 -27 14 58 19 46 3 85 7 88 9 2 3 8 2 13 -1 5 -3 8 -8 6 -10z
m-5078 -4 c0 -5 -5 -10 -11 -10 -5 0 -7 5 -4 10 3 6 8 10 11 10 2 0 4 -4 4
-10z m140 6 c0 -3 -4 -8 -10 -11 -5 -3 -10 -1 -10 4 0 6 5 11 10 11 6 0 10 -2
10 -4z m370 -11 c-7 -8 -16 -12 -21 -9 -13 8 -1 24 18 24 13 0 13 -3 3 -15z
m40 5 c0 -5 -4 -10 -10 -10 -5 0 -10 5 -10 10 0 6 5 10 10 10 6 0 10 -4 10
-10z m4638 -17 c18 -9 31 -17 30 -18 -6 -6 -128 30 -128 38 0 11 55 -1 98 -20z
m-4935 -2 c-22 -18 -22 -19 -3 -24 22 -6 27 -27 7 -27 -7 0 -21 6 -30 13 -16
11 -16 14 -2 35 9 12 24 22 33 22 14 -1 13 -4 -5 -19z m-183 -1 c0 -5 -6 -10
-14 -10 -8 0 -21 -6 -28 -13 -17 -17 -118 -32 -118 -17 0 5 10 10 23 10 12 0
45 9 72 20 58 22 65 23 65 10z m915 0 c-3 -5 -11 -10 -16 -10 -6 0 -7 5 -4 10
3 6 11 10 16 10 6 0 7 -4 4 -10z m1012 4 c-3 -3 -12 -4 -19 -1 -8 3 -5 6 6 6
11 1 17 -2 13 -5z m2863 1 c0 -2 -18 -13 -40 -24 -27 -13 -40 -15 -40 -7 0 7
12 17 28 23 30 12 52 16 52 8z m-4723 -21 c-3 -3 -12 -4 -19 -1 -8 3 -5 6 6 6
11 1 17 -2 13 -5z m600 0 c-3 -3 -12 -4 -19 -1 -8 3 -5 6 6 6 11 1 17 -2 13
-5z m208 -4 c-3 -5 -12 -10 -18 -10 -7 0 -6 4 3 10 19 12 23 12 15 0z m-855
-42 c0 -16 5 -19 25 -16 18 4 25 1 25 -10 0 -12 9 -13 45 -9 41 6 45 5 45 -14
0 -16 -4 -19 -17 -14 -42 17 -98 26 -101 16 -5 -15 -35 -14 -50 1 -13 13 -16
47 -6 72 8 22 34 2 34 -26z m100 38 c0 -3 -4 -8 -10 -11 -5 -3 -10 -1 -10 4 0
6 5 11 10 11 6 0 10 -2 10 -4z m197 -2 c-3 -3 -12 -4 -19 -1 -8 3 -5 6 6 6 11
1 17 -2 13 -5z m720 0 c-3 -3 -12 -4 -19 -1 -8 3 -5 6 6 6 11 1 17 -2 13 -5z
m-637 -24 c0 -14 -6 -20 -22 -19 -13 0 -17 3 -10 6 10 4 10 8 1 19 -9 11 -7
14 10 14 14 0 21 -6 21 -20z m1417 14 c-3 -3 -12 -4 -19 -1 -8 3 -5 6 6 6 11
1 17 -2 13 -5z m2878 -4 c-3 -5 -21 -12 -40 -16 -19 -3 -35 -10 -35 -15 0 -5
-12 -9 -27 -9 -23 1 -18 5 27 25 60 25 85 30 75 15z m-2918 -6 c-3 -3 -12 -4
-19 -1 -8 3 -5 6 6 6 11 1 17 -2 13 -5z m-1579 -25 c37 -1 37 -1 9 -11 -29
-10 -58 3 -56 26 0 7 2 6 6 -1 2 -7 21 -13 41 -14z m252 17 c0 -11 -19 -15
-25 -6 -3 5 1 10 9 10 9 0 16 -2 16 -4z m1273 -3 c-7 -2 -21 -2 -30 0 -10 3
-4 5 12 5 17 0 24 -2 18 -5z m-1070 -15 c28 -14 35 -27 15 -29 -7 0 -24 -2
-38 -5 -23 -3 -23 -3 -7 10 25 20 21 24 -25 29 -40 3 -41 4 -7 5 19 1 47 -4
62 -10z m74 -10 c-3 -8 -6 -5 -6 6 -1 11 2 17 5 13 3 -3 4 -12 1 -19z m926 15
c-7 -2 -19 -2 -25 0 -7 3 -2 5 12 5 14 0 19 -2 13 -5z m-1343 -18 c10 -13 9
-15 -9 -15 -12 0 -21 -6 -21 -15 0 -8 -4 -15 -10 -15 -14 0 -12 28 3 45 16 18
22 18 37 0z m470 5 c0 -5 -2 -10 -4 -10 -2 0 -12 -3 -22 -7 -16 -6 -17 -5 -4
10 17 19 30 22 30 7z m87 -4 c-4 -9 2 -17 14 -21 10 -4 19 -13 19 -22 0 -12
-8 -14 -37 -9 -21 4 -48 7 -60 7 -13 1 -20 6 -17 11 4 6 27 8 53 5 25 -3 38
-3 29 0 -10 2 -18 6 -18 8 0 9 13 35 17 35 3 0 3 -7 0 -14z m-499 -32 c1 -17
-2 -24 -11 -21 -6 2 -12 10 -12 18 0 8 -4 17 -10 21 -5 4 -1 8 10 8 15 0 21
-7 23 -26z m172 12 c0 -8 10 -22 23 -31 19 -13 20 -17 7 -25 -21 -13 -35 -7
-36 16 -2 43 -4 46 -24 41 -11 -3 -23 -1 -26 4 -3 5 9 9 25 9 20 0 31 -5 31
-14z m475 4 c3 -6 -1 -7 -9 -4 -18 7 -21 14 -7 14 6 0 13 -4 16 -10z m3516 -4
c-15 -18 -46 -26 -62 -15 -10 6 -6 9 13 9 15 0 30 5 33 10 3 6 11 10 17 10 7
0 7 -5 -1 -14z m423 -8 c-16 -12 -35 -26 -41 -31 -7 -5 -13 -6 -13 -1 0 10 60
54 74 54 5 0 -4 -10 -20 -22z m-3719 2 c-3 -5 -14 -10 -23 -9 -14 0 -13 2 3 9
27 11 27 11 20 0z m-780 -10 c-3 -5 -11 -10 -16 -10 -6 0 -7 5 -4 10 3 6 11
10 16 10 6 0 7 -4 4 -10z m-445 -40 c5 0 12 5 15 10 8 12 35 13 35 1 0 -5 -9
-11 -20 -14 -11 -3 -20 -12 -20 -20 0 -8 -7 -17 -15 -21 -9 -3 -15 0 -15 9 0
8 -9 15 -21 15 -11 0 -18 4 -14 9 3 5 0 13 -7 17 -8 5 -3 12 17 20 27 11 30
10 33 -7 2 -10 7 -19 12 -19z m690 8 c0 -5 -14 -8 -31 -8 l-31 0 23 19 c23 18
38 13 39 -11z m418 25 c-16 -2 -40 -2 -55 0 -16 2 -3 4 27 4 30 0 43 -2 28 -4z
m-135 -10 c-7 -2 -19 -2 -25 0 -7 3 -2 5 12 5 14 0 19 -2 13 -5z m3450 0 c-7
-2 -19 -2 -25 0 -7 3 -2 5 12 5 14 0 19 -2 13 -5z m-4178 -13 c18 -8 17 -9 -7
-9 -16 -1 -28 4 -28 9 0 12 8 12 35 0z m255 -10 c9 -16 8 -20 -5 -20 -8 0 -15
9 -15 20 0 11 2 20 5 20 2 0 9 -9 15 -20z m317 14 c-3 -3 -12 -4 -19 -1 -8 3
-5 6 6 6 11 1 17 -2 13 -5z m-617 -10 c0 -4 -12 -18 -26 -31 -35 -32 -25 -39
22 -14 21 12 46 21 54 20 13 0 13 -1 0 -6 -8 -3 -29 -22 -48 -42 -24 -26 -35
-32 -41 -22 -5 7 -17 11 -27 9 -15 -2 -19 3 -19 27 0 17 -4 33 -10 37 -9 7 1
13 40 21 32 7 55 8 55 1z m160 -56 c0 -17 -30 -7 -55 18 -36 36 -13 50 26 15
16 -14 29 -29 29 -33z m877 55 c-20 -2 -52 -2 -70 0 -17 2 0 4 38 4 39 0 53
-2 32 -4z m3643 3 c0 -3 -4 -8 -10 -11 -5 -3 -10 -1 -10 4 0 6 5 11 10 11 6 0
10 -2 10 -4z m-3783 -12 c-3 -3 -12 -4 -19 -1 -8 3 -5 6 6 6 11 1 17 -2 13 -5z
m-670 -10 c-3 -3 -12 -4 -19 -1 -8 3 -5 6 6 6 11 1 17 -2 13 -5z m202 -16 c7
-12 8 -24 2 -35 -5 -10 -5 -27 0 -42 8 -23 8 -24 -5 -8 -7 9 -21 17 -31 17
-17 0 -17 2 3 20 28 27 28 40 -1 40 -13 0 -24 6 -24 13 0 20 43 16 56 -5z
m284 15 c-7 -2 -21 -2 -30 0 -10 3 -4 5 12 5 17 0 24 -2 18 -5z m3407 2 c0 -2
-10 -10 -22 -16 -21 -11 -22 -11 -9 4 13 16 31 23 31 12z m530 0 c0 -2 -10 -9
-22 -15 -22 -11 -22 -10 -4 4 21 17 26 19 26 11z m-5000 -24 c0 -6 -4 -13 -10
-16 -5 -3 -10 1 -10 9 0 9 5 16 10 16 6 0 10 -4 10 -9z m570 -6 c0 -9 9 -15
25 -15 19 0 23 4 18 17 -6 15 -5 16 9 3 15 -14 15 -17 1 -32 -17 -19 -16 -19
32 -32 11 -3 3 -4 -17 -1 -24 2 -47 13 -62 29 -13 14 -29 26 -35 26 -7 0 -9 5
-6 10 10 15 35 12 35 -5z m299 -21 c-12 -13 -26 -21 -31 -18 -5 3 2 16 14 29
12 13 26 21 31 18 5 -3 -1 -16 -14 -29z m164 29 c-13 -2 -35 -2 -50 0 -16 2
-5 4 22 4 28 0 40 -2 28 -4z m-590 -13 c8 0 8 -3 0 -11 -6 -6 -9 -18 -6 -25 3
-9 -1 -14 -12 -14 -9 0 -13 -4 -10 -10 3 -5 0 -10 -8 -10 -10 0 -13 11 -11 38
1 20 3 39 3 41 1 2 8 0 17 -3 9 -3 21 -6 27 -6z m4492 -6 c-28 -21 -55 -36
-55 -29 0 6 62 45 70 45 3 -1 -4 -8 -15 -16z m-4726 -13 c20 -13 5 -41 -21
-40 -22 0 -22 1 -3 8 17 7 15 9 -14 16 -24 5 -30 10 -20 16 18 11 40 11 58 0z
m308 -37 c-9 -9 -28 6 -21 18 4 6 10 6 17 -1 6 -6 8 -13 4 -17z m609 14 c6
-10 -13 -9 -46 2 -23 8 -22 8 8 7 19 -1 36 -5 38 -9z m-756 -24 c-21 -24 5
-36 68 -30 57 5 63 2 30 -15 -37 -20 -100 -19 -105 0 -5 21 -63 46 -63 28 0
-7 -5 -4 -11 6 -14 25 -3 34 22 19 16 -10 24 -10 41 2 26 19 36 13 18 -10z
m510 16 c-8 -5 -19 -10 -25 -10 -5 0 -3 5 5 10 8 5 20 10 25 10 6 0 3 -5 -5
-10z m40 -12 c0 -16 -3 -19 -11 -11 -6 6 -8 16 -5 22 11 17 16 13 16 -11z
m3590 12 c-8 -5 -19 -10 -25 -10 -5 0 -3 5 5 10 8 5 20 10 25 10 6 0 3 -5 -5
-10z m-3475 -37 c4 -14 2 -23 -4 -23 -6 0 -11 -7 -11 -15 0 -8 -4 -15 -9 -15
-12 0 -11 41 2 57 5 7 5 18 1 25 -5 9 -4 10 3 3 6 -5 14 -20 18 -32z m-486 5
c-9 -6 2 -8 33 -4 26 3 50 1 53 -4 3 -6 -2 -10 -12 -10 -25 -1 -102 -38 -80
-39 9 -1 17 -8 17 -16 0 -12 -7 -14 -27 -9 -16 4 -29 8 -31 9 -7 5 44 93 51
88 5 -3 3 -10 -4 -15z m3916 12 c-3 -5 -14 -10 -23 -9 -14 0 -13 2 3 9 27 11
27 11 20 0z m-3379 -35 c2 -28 -11 -25 -19 5 -3 11 0 20 6 20 7 0 13 -11 13
-25z m47 18 c-7 -2 -19 -2 -25 0 -7 3 -2 5 12 5 14 0 19 -2 13 -5z m-173 -33
c12 -8 11 -10 -7 -10 -13 0 -23 5 -23 10 0 13 11 13 30 0z m213 -4 c23 -18 22
-25 -3 -19 -11 3 -20 9 -20 13 0 5 -8 11 -17 13 -15 4 -15 5 2 6 11 0 28 -6
38 -13z m-343 -6 c11 -8 8 -9 -13 -4 -23 5 -29 3 -34 -15 -7 -26 -14 -26 -37
0 -18 21 -18 22 8 15 15 -4 26 -2 26 4 0 13 31 13 50 0z m-353 -17 c4 -10 -75
-28 -84 -20 -2 2 -1 11 2 19 7 17 77 17 82 1z m443 7 c0 -5 -9 -10 -21 -10
-12 0 -23 -8 -26 -20 -6 -22 -23 -18 -23 6 0 8 7 14 15 14 8 0 15 5 15 10 0 6
9 10 20 10 11 0 20 -4 20 -10z m216 -21 c3 -5 -5 -9 -18 -9 -18 0 -20 -2 -8
-10 13 -8 12 -10 -2 -10 -12 0 -18 8 -18 24 0 19 4 23 20 19 11 -3 23 -9 26
-14z m152 14 c-10 -2 -26 -2 -35 0 -10 3 -2 5 17 5 19 0 27 -2 18 -5z m-236
-10 c0 -5 2 -19 3 -33 1 -14 5 -35 9 -47 6 -20 4 -23 -18 -23 -14 0 -26 -4
-26 -10 0 -5 18 -10 40 -10 38 0 52 12 30 25 -5 3 -10 15 -10 26 0 17 4 19 23
13 12 -4 34 -7 50 -6 16 2 27 -3 27 -11 0 -7 -11 -13 -27 -12 -18 0 -28 -5
-28 -15 0 -9 11 -16 28 -18 15 -2 27 -7 27 -12 0 -4 -10 -6 -22 -3 -20 4 -21
3 -5 -7 9 -6 17 -18 17 -27 0 -9 3 -13 7 -10 3 4 16 -2 28 -13 23 -22 55 -18
55 6 0 8 10 14 23 14 21 -1 21 -1 4 -14 -14 -11 -15 -15 -5 -19 8 -4 7 -6 -4
-6 -10 -1 -18 -8 -18 -16 0 -23 -30 -18 -52 10 -11 14 -26 25 -34 25 -8 0 -27
12 -41 27 -29 28 -87 40 -109 22 -8 -7 -14 -6 -19 1 -5 8 -11 8 -21 -1 -8 -6
-18 -9 -21 -5 -4 4 -3 10 3 14 6 4 13 20 16 35 7 34 -18 49 -37 24 -16 -23
-25 -21 -25 3 0 13 -7 20 -20 20 -11 0 -20 6 -20 13 0 8 17 12 50 13 27 0 47
-3 44 -8 -3 -4 -15 -8 -26 -8 -12 0 -19 -3 -15 -6 3 -3 24 -3 46 1 30 5 41 12
41 24 0 25 27 45 32 24z m-42 -7 c0 -11 -19 -15 -25 -6 -3 5 1 10 9 10 9 0 16
-2 16 -4z m196 -16 c8 0 14 -2 14 -4 0 -2 3 -12 7 -21 5 -14 0 -12 -20 6 -15
12 -27 27 -26 33 0 6 3 5 6 -1 2 -7 11 -13 19 -13z m3464 10 c-8 -5 -19 -10
-25 -10 -5 0 -3 5 5 10 8 5 20 10 25 10 6 0 3 -5 -5 -10z m-3071 -16 c2 -2
-16 -4 -40 -5 -24 0 -57 -2 -74 -4 -16 -2 -66 -6 -110 -9 -44 -2 -87 -7 -96
-11 -9 -3 -21 1 -28 9 -10 11 -8 14 11 14 89 2 272 12 276 17 5 4 53 -4 61
-11z m109 9 c-15 -2 -42 -2 -60 0 -18 2 -6 4 27 4 33 0 48 -2 33 -4z m-523
-23 c3 -5 -1 -10 -9 -10 -9 0 -16 5 -16 10 0 6 4 10 9 10 6 0 13 -4 16 -10z
m142 -66 c-3 -3 -12 -4 -19 -1 -8 3 -5 6 6 6 11 1 17 -2 13 -5z m-89 -33 c4
-23 4 -23 -21 -5 -27 20 -26 37 1 32 10 -2 19 -14 20 -27z m3192 19 c-8 -5
-19 -10 -25 -10 -5 0 -3 5 5 10 8 5 20 10 25 10 6 0 3 -5 -5 -10z m-3131 -19
c9 -6 10 -10 2 -16 -16 -9 -44 2 -36 15 8 12 16 12 34 1z m105 -22 c11 -2 21
-10 24 -17 4 -12 0 -12 -19 -2 -15 9 -24 9 -27 2 -1 -5 -13 -7 -24 -4 -16 4
-20 2 -16 -10 9 -22 -6 -40 -26 -32 -16 6 -16 7 0 19 9 6 14 17 10 23 -7 12 3
15 34 13 8 0 2 6 -15 13 -25 12 -27 14 -10 18 11 3 27 -1 35 -8 8 -6 24 -14
34 -15z m842 9 c-29 -17 -116 -49 -156 -58 -19 -4 -48 -11 -65 -15 l-30 -7 29
16 c15 9 40 16 55 17 14 0 58 13 96 29 73 29 104 37 71 18z m-1168 -4 c12 -4
22 -11 22 -16 0 -14 -53 -5 -58 10 -4 13 2 15 36 6z m3247 -4 c-3 -5 -12 -10
-18 -10 -7 0 -6 4 3 10 19 12 23 12 15 0z m-3275 -30 c0 -6 10 -10 23 -11 12
0 17 -3 10 -5 -7 -3 -9 -12 -6 -20 3 -8 -1 -14 -11 -14 -9 0 -16 6 -16 14 0
20 -25 27 -46 12 -20 -15 -11 -36 17 -36 10 0 19 -7 19 -15 0 -8 -4 -15 -8
-15 -4 0 -8 -9 -9 -21 -1 -12 -10 -27 -20 -35 -21 -16 -63 -19 -63 -4 0 6 -10
11 -22 11 l-23 2 23 4 c12 2 22 9 22 14 0 5 4 9 10 9 5 0 7 -7 4 -15 -4 -11 0
-15 16 -15 16 0 20 4 16 15 -4 10 1 15 16 15 17 0 18 2 8 15 -7 8 -21 15 -31
15 -11 0 -19 4 -19 9 0 5 -9 13 -20 16 -46 15 -13 40 62 48 13 1 16 7 12 20
-5 16 -3 17 15 8 12 -7 21 -16 21 -21z m-350 -1 c0 -5 -7 -9 -15 -9 -9 0 -12
6 -9 15 6 15 24 11 24 -6z m875 11 c4 -6 -14 -10 -47 -10 -32 0 -62 -6 -74
-15 -18 -14 -18 -14 8 -15 15 0 30 -4 33 -10 7 -11 -18 -13 -63 -4 l-31 6 28
23 c15 13 45 25 67 28 21 2 47 4 56 5 9 1 20 -2 23 -8z m-425 -20 c0 -5 7 -10
15 -10 19 0 20 -19 1 -26 -8 -3 -12 -12 -9 -20 3 -8 0 -14 -7 -14 -7 0 -10 -7
-6 -16 4 -10 1 -14 -6 -12 -16 6 -18 28 -5 45 6 9 2 16 -14 22 l-24 10 25 2
c18 1 20 3 7 6 -9 2 -15 9 -12 14 8 12 35 12 35 -1z m1530 -19 c0 -5 -9 -11
-21 -14 -16 -4 -18 -3 -8 9 9 11 8 14 -5 14 -9 0 -16 -4 -16 -10 0 -5 -7 -10
-15 -10 -8 0 -25 -10 -37 -22 -12 -12 -29 -23 -36 -25 -8 -1 -23 -11 -33 -22
-22 -23 -36 -26 -59 -11 -12 7 -8 11 18 16 17 4 32 10 32 15 0 5 6 9 14 9 8 0
40 18 72 39 45 30 63 37 76 30 10 -5 18 -14 18 -18z m-690 4 c0 -4 -19 -15
-42 -25 -53 -24 -128 -27 -128 -5 0 8 6 15 13 15 6 0 23 3 36 7 17 4 22 3 17
-5 -4 -7 -1 -12 8 -12 24 0 46 11 40 21 -3 5 9 9 25 9 17 0 31 -2 31 -5z
m-315 -25 c-3 -5 -15 -10 -26 -10 -11 0 -17 5 -14 10 3 6 15 10 26 10 11 0 17
-4 14 -10z m95 -3 l-35 -10 30 -7 c26 -6 23 -7 -23 -11 -28 -2 -52 -1 -52 4 0
4 5 7 10 7 6 0 10 7 10 15 0 11 12 15 48 14 l47 -1 -35 -11z m950 3 c12 -8 11
-10 -7 -10 -13 0 -23 5 -23 10 0 13 11 13 30 0z m-1111 -5 c-3 -2 -19 -5 -37
-7 -18 -1 -32 -6 -32 -10 0 -4 4 -8 8 -8 4 0 8 -9 9 -20 1 -16 -3 -18 -30 -13
-43 8 -47 13 -11 13 27 1 28 2 10 15 -27 21 -11 35 41 35 26 0 44 -2 42 -5z
m-169 -15 c0 -5 -11 -10 -25 -10 -14 0 -25 5 -25 10 0 6 11 10 25 10 14 0 25
-4 25 -10z m810 0 c-8 -5 -19 -10 -25 -10 -5 0 -3 5 5 10 8 5 20 10 25 10 6 0
3 -5 -5 -10z m410 -11 c13 -6 12 -9 -3 -14 -9 -4 -24 -2 -32 5 -8 6 -19 9 -25
5 -11 -7 -14 8 -3 18 7 7 36 1 63 -14z m-1160 1 c0 -5 -4 -10 -10 -10 -5 0
-10 5 -10 10 0 6 5 10 10 10 6 0 10 -4 10 -10z m163 3 c-7 -2 -19 -2 -25 0 -7
3 -2 5 12 5 14 0 19 -2 13 -5z m537 -13 c-8 -5 -22 -9 -30 -9 -10 0 -8 3 5 9
27 12 43 12 25 0z m-743 -16 c-3 -3 -12 -4 -19 -1 -8 3 -5 6 6 6 11 1 17 -2
13 -5z m423 -4 c-14 -4 -34 -8 -45 -8 -16 0 -15 2 5 8 14 4 34 8 45 8 16 0 15
-2 -5 -8z m-157 -7 c-7 -2 -19 -2 -25 0 -7 3 -2 5 12 5 14 0 19 -2 13 -5z m57
3 c0 -2 -9 -6 -20 -9 -11 -3 -20 -1 -20 4 0 5 9 9 20 9 11 0 20 -2 20 -4z
m-112 -13 c-10 -2 -28 -2 -40 0 -13 2 -5 4 17 4 22 1 32 -1 23 -4z m415 0 c-7
-2 -19 -2 -25 0 -7 3 -2 5 12 5 14 0 19 -2 13 -5z m342 -3 c-9 -15 -45 -32
-45 -22 0 5 10 14 23 20 29 14 29 14 22 2z m115 0 c0 -5 -2 -10 -4 -10 -3 0
-8 5 -11 10 -3 6 -1 10 4 10 6 0 11 -4 11 -10z m-990 -30 c0 -23 -17 -25 -42
-6 -26 19 -22 26 12 26 23 0 30 -4 30 -20z m57 4 c-3 -3 -12 -4 -19 -1 -8 3
-5 6 6 6 11 1 17 -2 13 -5z m123 -9 c10 -13 9 -15 -11 -15 -13 0 -40 -6 -60
-13 l-37 -13 24 -21 c35 -31 56 -35 95 -19 19 9 28 15 22 16 -7 0 -13 5 -13
10 0 7 7 7 22 -1 13 -7 42 -9 77 -5 72 8 46 -9 -28 -18 -30 -4 -62 -11 -72
-17 -22 -12 -136 0 -117 12 8 6 2 9 -20 9 -20 0 -31 -4 -27 -10 9 -14 -7 -12
-27 4 -25 18 -23 40 2 33 13 -3 20 0 20 9 0 9 12 14 33 15 26 0 28 2 12 8 -19
8 -19 8 3 15 13 4 35 5 49 2 16 -5 22 -3 18 4 -10 16 21 12 35 -5z m155 6
c-39 -16 -85 -23 -85 -12 0 8 29 14 90 19 8 0 6 -3 -5 -7z m481 -8 c-2 -14
-14 -19 -57 -21 -34 -2 -57 -9 -62 -18 -5 -9 -16 -12 -30 -9 -13 4 -36 -1 -52
-9 -35 -18 -55 -20 -55 -6 0 6 13 10 28 10 15 0 33 5 38 10 6 6 43 17 84 26
40 8 81 19 89 24 9 5 17 10 18 10 1 0 0 -8 -1 -17z m55 -3 l-23 -20 26 0 c16
0 25 -4 21 -10 -8 -14 -42 -13 -51 1 -4 7 4 20 17 30 32 25 40 24 10 -1z m99
10 c0 -5 -7 -7 -15 -4 -8 4 -15 8 -15 10 0 2 7 4 15 4 8 0 15 -4 15 -10z
m-740 -10 c0 -5 -7 -10 -15 -10 -8 0 -15 5 -15 10 0 6 7 10 15 10 8 0 15 -4
15 -10z m-56 -48 c10 -5 -13 -22 -32 -22 -7 0 -10 5 -7 10 3 6 -1 10 -9 10 -9
0 -16 5 -16 10 0 10 42 4 64 -8z m213 -8 c-3 -3 -12 -4 -19 -1 -8 3 -5 6 6 6
11 1 17 -2 13 -5z m318 -4 c-3 -5 -15 -10 -26 -10 -11 0 -17 -4 -14 -10 3 -5
-1 -10 -9 -10 -28 0 -17 28 12 33 15 2 31 5 35 6 5 0 5 -3 2 -9z m-296 -26
c-14 -18 -24 -11 -15 11 3 9 11 13 16 10 8 -5 7 -11 -1 -21z m64 19 c-7 -2
-21 -2 -30 0 -10 3 -4 5 12 5 17 0 24 -2 18 -5z m57 -12 c0 -16 -15 -20 -41
-14 l-24 7 25 7 c36 10 40 10 40 0z m-225 -11 c-3 -5 -16 -10 -28 -10 -18 0
-19 2 -7 10 20 13 43 13 35 0z"/>
<path d="M2568 2193 c7 -3 16 -2 19 1 4 3 -2 6 -13 5 -11 0 -14 -3 -6 -6z"/>
<path d="M2783 2183 c9 -2 25 -2 35 0 9 3 1 5 -18 5 -19 0 -27 -2 -17 -5z"/>
<path d="M3240 2165 c0 -8 5 -15 10 -15 6 0 10 7 10 15 0 8 -4 15 -10 15 -5 0
-10 -7 -10 -15z"/>
<path d="M3700 2150 c0 -5 5 -10 10 -10 6 0 10 5 10 10 0 6 -4 10 -10 10 -5 0
-10 -4 -10 -10z"/>
<path d="M2311 1204 c-7 -8 -10 -18 -7 -21 7 -7 36 16 36 28 0 13 -13 10 -29
-7z"/>
<path d="M5290 5440 c-12 -8 -12 -10 3 -16 21 -8 35 2 21 16 -5 5 -15 6 -24 0z"/>
<path d="M5627 5329 c-9 -6 -17 -14 -17 -19 0 -17 27 -11 34 6 8 22 5 25 -17
13z"/>
<path d="M5538 5276 c-24 -18 -23 -25 9 -37 32 -12 48 0 38 30 -7 24 -22 26
-47 7z"/>
<path d="M1623 5261 c-3 -12 -9 -21 -14 -21 -5 0 -9 -10 -9 -22 0 -13 -6 -54
-14 -93 -18 -87 -25 -244 -11 -247 9 -3 22 63 41 202 3 25 13 70 21 100 8 30
16 64 17 74 2 27 -24 33 -31 7z"/>
<path d="M3955 5199 c-10 -15 3 -25 16 -12 7 7 7 13 1 17 -6 3 -14 1 -17 -5z"/>
<path d="M3630 5100 c-8 -5 -10 -10 -5 -10 6 0 17 5 25 10 8 5 11 10 5 10 -5
0 -17 -5 -25 -10z"/>
<path d="M5995 4980 c3 -5 12 -10 20 -10 8 0 17 5 20 10 4 6 -5 10 -20 10 -15
0 -24 -4 -20 -10z"/>
<path d="M5965 4960 c-3 -5 -1 -10 4 -10 6 0 11 5 11 10 0 6 -2 10 -4 10 -3 0
-8 -4 -11 -10z"/>
<path d="M6112 4904 c1 -31 4 -35 26 -32 54 7 50 68 -4 68 -20 0 -23 -5 -22
-36z"/>
<path d="M6060 4835 c0 -8 -4 -15 -10 -15 -5 0 -10 -7 -10 -15 0 -19 16 -19
24 0 3 9 12 12 22 8 14 -5 15 -3 5 15 -13 25 -31 29 -31 7z"/>
<path d="M6205 4700 c-3 -5 -1 -10 4 -10 6 0 11 5 11 10 0 6 -2 10 -4 10 -3 0
-8 -4 -11 -10z"/>
<path d="M6408 4651 c-31 -31 -23 -93 18 -149 1 -2 21 16 43 40 23 23 37 44
31 46 -5 2 -10 8 -10 13 0 6 4 8 9 5 13 -8 42 4 35 15 -7 13 -80 49 -96 48 -7
0 -21 -8 -30 -18z"/>
<path d="M6291 4648 c0 -7 4 -22 8 -32 6 -16 9 -17 16 -6 16 26 13 50 -7 50
-10 0 -18 -6 -17 -12z"/>
<path d="M6602 4633 c2 -10 11 -19 21 -21 24 -5 21 15 -4 28 -18 10 -20 9 -17
-7z"/>
<path d="M6261 4556 c-8 -10 -8 -16 3 -25 8 -6 12 -21 9 -31 -7 -28 12 -25 31
5 17 26 22 60 7 50 -5 -3 -12 -1 -16 5 -9 14 -20 13 -34 -4z"/>
<path d="M6351 4536 c-8 -10 -9 -16 -1 -21 13 -8 30 3 30 21 0 18 -14 18 -29
0z"/>
<path d="M6558 4529 c-26 -14 -22 -46 7 -65 32 -21 61 -15 58 14 -2 12 2 22 7
22 16 0 11 27 -6 34 -22 9 -46 7 -66 -5z m35 -34 c-3 -9 -8 -14 -10 -11 -3 3
-2 9 2 15 9 16 15 13 8 -4z"/>
<path d="M6338 4473 c-10 -2 -18 -9 -18 -14 0 -5 -9 -9 -21 -9 -16 0 -19 -4
-14 -20 5 -16 2 -20 -16 -18 -12 2 -24 -2 -26 -9 -3 -8 18 -11 76 -10 67 2 81
5 85 20 2 9 -2 24 -10 31 -8 8 -14 19 -14 25 0 11 -11 12 -42 4z"/>
<path d="M6486 4473 c-12 -12 -6 -33 9 -33 8 0 15 6 15 14 0 17 -14 28 -24 19z"/>
<path d="M6605 4391 c-3 -5 4 -13 16 -16 17 -6 19 -9 8 -16 -12 -8 -12 -11 1
-22 9 -6 22 -31 29 -54 8 -24 19 -43 25 -43 16 0 32 13 38 31 5 12 1 15 -18
11 -24 -4 -33 11 -14 23 6 4 7 11 4 17 -4 7 0 7 13 0 26 -14 38 -4 40 36 2 36
-11 41 -39 15 -17 -15 -20 -15 -41 5 -24 23 -52 29 -62 13z"/>
<path d="M6516 4363 c-3 -8 -6 -16 -6 -18 0 -2 20 -3 45 -3 45 0 51 4 37 24
-11 17 -69 15 -76 -3z"/>
<path d="M6596 4285 c-3 -8 -1 -15 4 -15 6 0 10 7 10 15 0 8 -2 15 -4 15 -2 0
-6 -7 -10 -15z"/>
<path d="M6620 4250 c0 -5 5 -10 11 -10 5 0 7 5 4 10 -3 6 -8 10 -11 10 -2 0
-4 -4 -4 -10z"/>
<path d="M6960 4051 c0 -24 18 -37 31 -24 13 13 1 43 -17 43 -8 0 -14 -9 -14
-19z"/>
<path d="M3300 4040 c0 -5 5 -10 11 -10 5 0 7 5 4 10 -3 6 -8 10 -11 10 -2 0
-4 -4 -4 -10z"/>
<path d="M6880 4040 c0 -6 7 -10 15 -10 8 0 15 -5 15 -11 0 -6 -8 -8 -19 -4
-14 4 -20 0 -25 -17 -11 -43 -7 -61 12 -53 9 4 32 8 51 9 26 2 36 8 43 26 5
12 6 25 4 27 -8 8 -27 -8 -21 -18 4 -5 1 -9 -4 -9 -6 0 -11 7 -11 15 0 8 -6
15 -12 15 -9 0 -8 3 2 10 15 9 16 9 -35 25 -8 2 -15 0 -15 -5z"/>
<path d="M6505 4031 c-3 -5 0 -11 7 -14 7 -2 3 -2 -9 -1 -26 5 -40 -13 -24
-29 16 -16 14 -27 -6 -27 -10 0 -35 -18 -57 -40 -43 -45 -48 -46 -66 -25 -17
20 -32 19 -28 -1 2 -10 -3 -19 -10 -21 -8 -3 -10 1 -6 11 7 19 -12 46 -32 46
-19 0 -54 -31 -54 -48 0 -10 8 -12 29 -7 18 4 32 2 37 -6 5 -9 2 -10 -9 -6
-22 8 -47 -2 -47 -19 0 -8 -4 -14 -8 -14 -5 0 -14 -12 -20 -26 -7 -14 -17 -22
-22 -19 -6 4 -8 10 -5 15 8 13 -6 40 -21 40 -17 0 -65 -51 -58 -62 3 -4 0 -8
-5 -8 -6 0 -11 7 -11 15 0 8 -4 15 -10 15 -13 0 -12 -11 3 -32 7 -9 30 -19 50
-23 22 -4 37 -13 37 -21 0 -18 -25 -18 -44 1 -16 17 -36 20 -36 6 0 -5 -9 -13
-20 -16 -11 -3 -20 -13 -20 -21 0 -8 9 -23 20 -34 11 -11 20 -24 20 -30 0 -5
9 -10 20 -10 11 0 20 5 20 11 0 7 9 9 22 6 12 -3 29 -2 39 3 12 7 20 5 29 -5
9 -11 6 -17 -15 -31 -21 -14 -28 -15 -35 -4 -12 19 -77 4 -85 -19 -8 -25 -53
-54 -72 -47 -16 7 -63 -39 -63 -61 0 -21 25 -14 35 9 12 27 52 40 42 14 -7
-17 3 -21 19 -7 5 5 27 6 49 1 22 -4 31 -8 19 -9 -26 -1 -34 -9 -27 -27 3 -9
13 -12 29 -8 18 5 24 2 24 -9 0 -13 11 -15 55 -13 31 1 61 8 67 14 18 18 31
14 26 -6 -4 -14 3 -22 23 -29 31 -12 37 -5 17 16 -7 7 -8 12 -3 11 22 -5 35 1
35 14 0 8 -6 16 -12 19 -9 3 -6 12 10 29 24 26 29 58 10 58 -8 1 -5 6 6 15 10
7 15 18 11 24 -3 6 -1 11 4 11 6 0 11 7 11 15 0 16 20 19 57 9 26 -7 41 -43
23 -54 -7 -4 -10 -15 -7 -23 3 -9 -1 -18 -9 -21 -8 -3 -14 -12 -14 -20 0 -7
-6 -16 -14 -19 -8 -3 -16 -16 -18 -29 -2 -15 -9 -23 -21 -22 -11 1 -17 -5 -17
-18 0 -11 -5 -28 -10 -39 -9 -17 -7 -19 17 -20 15 0 22 -3 16 -6 -7 -2 -13
-11 -13 -19 0 -21 -18 -17 -44 11 -15 16 -34 25 -54 25 -17 0 -34 5 -37 10 -4
7 3 9 22 5 23 -5 25 -4 10 5 -19 12 -57 5 -57 -11 0 -10 -60 -39 -80 -39 -5 0
-10 7 -10 15 0 16 -16 20 -24 6 -3 -5 1 -14 9 -21 20 -16 19 -30 -1 -30 -10 0
-14 6 -10 15 7 20 -11 19 -31 -1 -9 -8 -22 -13 -30 -10 -8 3 -21 6 -29 6 -8 0
-14 4 -14 10 0 5 7 7 15 4 18 -7 19 5 1 29 -17 22 -22 21 -46 -3 -11 -11 -29
-20 -40 -20 -10 0 -35 -11 -54 -23 l-34 -24 51 5 c29 2 60 8 69 13 10 6 19 5
23 -1 10 -16 -6 -32 -26 -27 -10 3 -22 1 -25 -4 -3 -5 -15 -9 -28 -9 -22 0
-46 -17 -46 -33 0 -5 11 -6 25 -3 16 4 25 2 25 -6 0 -7 5 -5 13 4 6 9 32 22
55 28 27 7 42 16 39 23 -3 8 12 12 48 12 39 0 51 -3 47 -13 -2 -8 5 -16 17
-19 28 -7 23 -20 -14 -41 -16 -9 -35 -24 -42 -32 -7 -8 -13 -10 -13 -4 0 6 9
19 20 29 34 31 20 55 -32 55 -14 0 -18 -5 -14 -15 3 -8 -1 -33 -9 -55 -9 -26
-10 -42 -4 -46 6 -3 8 -12 5 -20 -3 -8 -1 -14 3 -14 5 0 11 6 14 13 6 15 77
11 77 -4 0 -5 -6 -9 -14 -9 -12 0 -26 -20 -26 -36 0 -2 11 -4 25 -4 19 0 25 5
25 21 0 19 4 21 41 16 43 -6 57 -13 46 -23 -4 -4 -13 -1 -21 5 -9 8 -16 9 -21
2 -8 -13 37 -25 64 -16 12 3 21 12 21 20 0 16 25 26 47 18 12 -5 15 -2 11 8
-3 8 -9 21 -13 31 -4 11 0 18 15 23 16 5 18 10 10 20 -15 18 4 29 36 21 29 -8
32 8 4 31 -24 21 -26 33 -5 33 8 0 15 4 15 8 0 4 16 8 36 9 20 1 40 7 45 14 4
7 11 10 15 6 4 -3 1 -13 -6 -22 -11 -13 -9 -19 11 -37 l24 -21 -27 7 c-21 5
-28 3 -28 -9 0 -11 10 -15 35 -15 32 0 35 -2 35 -31 0 -28 2 -30 33 -27 28 3
34 -1 47 -29 17 -38 26 -41 33 -13 4 15 14 20 37 20 17 0 29 4 26 9 -4 5 -1
11 6 13 25 9 -4 27 -32 21 -26 -5 -30 -2 -30 15 0 23 38 41 49 24 4 -6 12 -7
20 -3 11 7 10 13 -4 34 -9 15 -14 31 -10 37 3 5 -1 10 -10 10 -16 0 -45 22
-45 35 0 3 9 4 19 0 11 -3 22 -1 26 5 3 6 -3 10 -14 10 -12 0 -21 5 -21 10 0
6 19 10 41 10 33 0 39 -3 30 -13 -8 -11 -6 -13 12 -12 12 1 23 9 25 18 2 9 10
17 18 17 8 0 17 6 20 14 3 8 12 12 20 9 20 -7 69 38 52 48 -9 6 -9 11 1 23 10
12 11 19 2 30 -10 11 -8 17 6 25 10 6 12 11 6 11 -7 0 -13 5 -13 11 0 5 4 8 9
4 6 -3 15 4 21 16 10 17 18 20 41 15 19 -3 28 -2 24 4 -3 6 1 10 10 10 9 0 13
5 10 11 -4 6 -14 8 -22 4 -19 -7 -83 40 -83 62 0 11 -8 14 -30 11 -28 -4 -30
-3 -30 29 0 26 4 33 20 33 22 0 27 15 8 24 -10 3 -9 8 3 18 19 16 18 60 -2 66
-8 3 -21 10 -29 17 -12 10 -28 9 -82 -4 -75 -18 -89 -26 -59 -36 23 -7 29 -25
8 -25 -7 0 -22 6 -32 14 -17 12 -21 12 -31 -3 -7 -9 -15 -13 -19 -9 -4 4 2 17
14 29 27 30 18 40 -30 33 -35 -6 -39 -4 -39 14 0 19 3 20 27 11 14 -5 33 -7
41 -4 11 4 9 12 -12 39 -14 19 -26 43 -26 53 0 11 -5 24 -12 31 -14 14 -54 16
-63 3z m-79 -170 c-3 -5 1 -12 10 -15 9 -4 15 -9 12 -12 -8 -7 -58 14 -58 26
0 5 9 10 21 10 11 0 18 -4 15 -9z m404 -1 c13 -9 13 -10 0 -9 -8 0 -24 4 -35
9 l-20 9 20 0 c11 0 27 -4 35 -9z m-469 -29 c-12 -7 -11 -12 1 -30 13 -19 17
-20 28 -6 22 27 61 12 44 -17 -4 -7 -7 -36 -6 -65 1 -40 -3 -53 -14 -53 -8 0
-14 7 -14 15 0 9 -6 18 -14 21 -8 3 -13 11 -10 18 2 6 -2 20 -10 31 -12 16
-17 18 -27 8 -16 -16 -49 -17 -49 -3 0 6 7 13 15 16 21 8 19 21 -5 29 -28 9
-25 22 8 33 35 14 73 15 53 3z m329 -56 c-43 -32 -57 -32 -28 -1 13 14 32 25
42 25 16 1 12 -5 -14 -24z m-8 -68 c7 -38 -1 -49 -25 -32 -12 8 -29 15 -39 15
-10 0 -18 5 -18 10 0 6 11 10 24 10 14 0 28 5 31 10 10 17 22 11 27 -13z
m-385 -2 c-11 -7 -26 -11 -35 -7 -15 6 0 12 48 20 3 1 -3 -5 -13 -13z m30 -37
c-3 -8 -6 -5 -6 6 -1 11 2 17 5 13 3 -3 4 -12 1 -19z m-7 -39 c0 -6 -5 -20
-12 -32 l-12 -22 -6 25 c-4 14 -5 28 -3 33 6 11 33 8 33 -4z m-170 -43 c0 -2
-9 -6 -20 -9 -11 -3 -20 -1 -20 4 0 5 9 9 20 9 11 0 20 -2 20 -4z m-50 -26 c0
-5 -4 -10 -10 -10 -5 0 -10 5 -10 10 0 6 5 10 10 10 6 0 10 -4 10 -10z m215 0
c-3 -5 -11 -10 -16 -10 -6 0 -7 5 -4 10 3 6 11 10 16 10 6 0 7 -4 4 -10z
m-185 -31 c0 -5 -12 -9 -27 -9 -26 0 -26 1 -8 14 20 14 35 12 35 -5z m576 0
c8 -14 -11 -33 -25 -25 -11 7 -4 36 9 36 5 0 12 -5 16 -11z m-386 -48 c0 -11
-39 -25 -47 -18 -3 3 -2 10 2 16 8 13 45 15 45 2z m480 0 c0 -5 9 -13 20 -16
11 -3 20 -11 20 -16 0 -17 -25 -9 -49 16 -18 20 -20 25 -7 25 9 0 16 -4 16 -9z
m-630 -11 c-8 -5 -24 -9 -35 -9 -16 1 -16 2 5 9 35 11 48 11 30 0z m535 -70
c-3 -5 -13 -10 -21 -10 -8 0 -12 5 -9 10 3 6 13 10 21 10 8 0 12 -4 9 -10z
m-45 -135 c-6 -7 -7 -14 -5 -17 3 -3 -8 -8 -25 -11 -16 -4 -29 -12 -28 -18 2
-6 -9 -12 -23 -13 -35 -2 -27 17 13 32 26 9 29 14 19 26 -20 24 -5 36 29 23
20 -8 26 -15 20 -22z m-480 1 c0 -3 -4 -8 -10 -11 -5 -3 -10 -1 -10 4 0 6 5
11 10 11 6 0 10 -2 10 -4z m120 -26 c0 -5 -4 -10 -10 -10 -5 0 -10 5 -10 10 0
6 5 10 10 10 6 0 10 -4 10 -10z m-116 -19 c3 -4 -3 -16 -13 -25 -23 -21 -39
-4 -19 18 15 18 25 20 32 7z"/>
<path d="M6370 3971 c0 -17 12 -41 21 -41 5 0 9 11 9 25 0 16 -6 25 -15 25 -8
0 -15 -4 -15 -9z"/>
<path d="M6840 3933 c0 -4 5 -15 10 -23 8 -13 10 -13 10 2 0 9 -4 20 -10 23
-5 3 -10 3 -10 -2z"/>
<path d="M6660 3912 c0 -14 11 -21 26 -15 21 8 17 23 -6 23 -11 0 -20 -4 -20
-8z"/>
<path d="M6902 3868 c3 -7 18 -14 34 -16 28 -3 28 -3 9 12 -24 19 -48 21 -43
4z"/>
<path d="M5933 3835 c-7 -20 2 -29 21 -22 9 4 13 13 10 22 -8 19 -23 19 -31 0z"/>
<path d="M6960 3808 c0 -4 -8 -8 -18 -8 -23 0 -27 -39 -4 -47 9 -4 23 -13 30
-19 10 -11 8 -15 -9 -24 -11 -7 -30 -10 -40 -7 -10 3 -19 1 -19 -4 0 -5 7 -9
15 -9 8 0 15 -7 15 -16 0 -14 1 -14 16 0 20 20 38 20 55 0 10 -13 10 -17 -1
-24 -8 -5 -11 -12 -7 -16 4 -4 15 -1 23 8 12 11 25 14 49 8 39 -9 66 3 48 21
-6 6 -17 8 -24 3 -30 -18 -51 -11 -65 22 -8 18 -24 39 -36 45 -29 15 -38 28
-31 46 9 22 32 15 39 -13 5 -18 11 -23 23 -18 9 3 24 9 34 11 21 6 23 23 2 23
-8 0 -15 7 -15 14 0 11 -11 15 -40 13 -22 -1 -40 -5 -40 -9z"/>
<path d="M5628 3740 c-7 -11 -18 -20 -24 -20 -6 0 -17 -7 -24 -15 -10 -12 -9
-15 8 -15 11 0 23 7 26 16 3 8 11 12 17 9 12 -8 51 24 43 36 -9 16 -33 10 -46
-11z"/>
<path d="M5767 3741 c-22 -14 -25 -20 -13 -24 8 -3 22 1 31 10 10 9 26 13 43
10 25 -5 25 -4 7 9 -25 18 -34 18 -68 -5z"/>
<path d="M5538 3703 c7 -3 16 -2 19 1 4 3 -2 6 -13 5 -11 0 -14 -3 -6 -6z"/>
<path d="M5785 3700 c3 -5 15 -10 25 -10 10 0 22 5 25 10 4 6 -7 10 -25 10
-18 0 -29 -4 -25 -10z"/>
<path d="M5648 3693 c7 -3 16 -2 19 1 4 3 -2 6 -13 5 -11 0 -14 -3 -6 -6z"/>
<path d="M5725 3670 c-3 -5 -2 -10 4 -10 5 0 13 5 16 10 3 6 2 10 -4 10 -5 0
-13 -4 -16 -10z"/>
<path d="M5970 3652 c0 -5 10 -13 23 -16 21 -7 21 -7 2 -15 -19 -8 -19 -8 2
-15 13 -4 27 -4 33 -1 14 9 12 45 -2 45 -7 0 -23 3 -35 6 -13 4 -23 2 -23 -4z"/>
<path d="M5856 3581 c-4 -5 -2 -12 3 -15 5 -4 12 -2 15 3 4 5 2 12 -3 15 -5 4
-12 2 -15 -3z"/>
<path d="M7005 3530 c-3 -5 -2 -10 4 -10 5 0 13 5 16 10 3 6 2 10 -4 10 -5 0
-13 -4 -16 -10z"/>
<path d="M6376 3473 c-11 -11 -6 -23 9 -23 8 0 15 4 15 9 0 13 -16 22 -24 14z"/>
<path d="M6887 3442 c-25 -27 -21 -35 8 -16 25 16 33 34 17 34 -5 0 -16 -8
-25 -18z"/>
<path d="M5923 3423 c-22 -8 -14 -23 12 -23 16 0 25 6 25 15 0 15 -14 18 -37
8z"/>
<path d="M6970 3420 c0 -5 5 -10 10 -10 6 0 10 5 10 10 0 6 -4 10 -10 10 -5 0
-10 -4 -10 -10z"/>
<path d="M7016 3415 c4 -8 8 -15 10 -15 2 0 4 7 4 15 0 8 -4 15 -10 15 -5 0
-7 -7 -4 -15z"/>
<path d="M6955 3390 c-3 -5 -1 -10 4 -10 6 0 11 5 11 10 0 6 -2 10 -4 10 -3 0
-8 -4 -11 -10z"/>
<path d="M6718 3323 c7 -3 16 -2 19 1 4 3 -2 6 -13 5 -11 0 -14 -3 -6 -6z"/>
<path d="M6830 3306 c0 -9 7 -16 16 -16 9 0 14 5 12 12 -6 18 -28 21 -28 4z"/>
<path d="M6805 3270 c-3 -5 3 -10 14 -10 12 0 21 5 21 10 0 6 -6 10 -14 10 -8
0 -18 -4 -21 -10z"/>
<path d="M5960 3236 c0 -9 -5 -16 -12 -16 -8 0 -9 -3 -2 -10 11 -11 44 -3 44
10 0 4 -7 13 -15 20 -12 10 -15 10 -15 -4z"/>
<path d="M6436 3204 c-4 -9 -4 -19 -1 -22 6 -6 35 18 35 29 0 16 -28 10 -34
-7z"/>
<path d="M6860 3210 c0 -5 5 -10 10 -10 6 0 10 5 10 10 0 6 -4 10 -10 10 -5 0
-10 -4 -10 -10z"/>
<path d="M6717 3135 c-9 -22 8 -26 21 -4 10 15 10 19 -2 19 -8 0 -16 -7 -19
-15z"/>
<path d="M5902 3128 c-7 -7 -12 -15 -12 -19 0 -11 42 -8 57 4 7 5 18 5 25 1 9
-6 6 -10 -11 -14 -13 -3 -28 -15 -32 -28 -8 -22 -8 -22 22 -6 17 8 38 13 47 9
15 -5 14 -9 -7 -24 l-24 -18 28 -7 c15 -4 32 -3 38 3 7 7 3 8 -12 4 -12 -3
-21 -1 -21 6 0 6 4 11 9 11 20 0 21 34 1 52 -11 10 -20 23 -20 28 0 15 -38 12
-43 -2 -3 -10 -7 -10 -19 -1 -11 10 -17 10 -26 1z"/>
<path d="M6670 3119 c0 -5 5 -7 10 -4 6 3 10 8 10 11 0 2 -4 4 -10 4 -5 0 -10
-5 -10 -11z"/>
<path d="M6320 3106 c0 -10 28 -13 41 -5 10 6 7 9 -13 9 -16 0 -28 -2 -28 -4z"/>
<path d="M6420 3100 c0 -5 5 -10 10 -10 6 0 10 5 10 10 0 6 -4 10 -10 10 -5 0
-10 -4 -10 -10z"/>
<path d="M5865 3090 c-8 -14 9 -34 23 -29 7 3 6 11 -3 22 -9 13 -15 15 -20 7z"/>
<path d="M6625 3080 c-3 -5 1 -10 9 -10 9 0 16 5 16 10 0 6 -4 10 -9 10 -6 0
-13 -4 -16 -10z"/>
<path d="M6676 3064 c-4 -9 1 -14 14 -14 23 0 27 15 6 23 -8 3 -17 -1 -20 -9z"/>
<path d="M6286 3034 l-18 -26 28 4 c21 2 30 9 32 26 5 30 -18 28 -42 -4z"/>
<path d="M6573 3047 c-36 -14 -60 -34 -50 -43 7 -8 107 37 107 49 0 10 -19 8
-57 -6z"/>
<path d="M5841 2978 c-28 -29 -22 -42 21 -46 33 -3 35 -1 31 22 -8 41 -28 51
-52 24z"/>
<path d="M720 2935 c0 -9 6 -12 15 -9 8 4 12 10 9 15 -8 14 -24 10 -24 -6z"/>
<path d="M640 2846 c0 -9 -4 -14 -10 -11 -5 3 -10 1 -10 -4 0 -6 5 -11 10 -11
13 0 25 28 16 37 -3 4 -6 -1 -6 -11z"/>
<path d="M6814 2347 c-17 -18 -42 -40 -55 -50 l-24 -18 25 12 c34 16 100 69
100 80 0 16 -14 9 -46 -24z"/>
<path d="M800 2345 c0 -10 7 -15 18 -13 21 4 19 22 -2 26 -10 2 -16 -3 -16
-13z"/>
<path d="M852 2333 c-13 -5 -7 -23 9 -23 6 0 7 5 4 10 -3 6 -1 10 4 10 6 0 11
-10 11 -22 0 -16 3 -19 11 -11 24 24 -4 50 -39 36z"/>
<path d="M7260 2089 c-10 -5 -11 -9 -3 -9 7 0 10 -7 7 -15 -4 -8 -2 -15 4 -15
12 0 23 38 13 44 -4 3 -13 1 -21 -5z"/>
<path d="M960 1840 c0 -5 9 -10 20 -10 11 0 20 5 20 10 0 6 -9 10 -20 10 -11
0 -20 -4 -20 -10z"/>
<path d="M1030 1706 c0 -8 7 -21 15 -30 9 -8 15 -19 14 -23 -1 -4 0 -11 1 -15
1 -5 3 -11 5 -15 9 -35 27 -63 40 -63 8 0 15 -7 15 -17 0 -15 2 -15 19 1 23
21 17 46 -9 39 -12 -3 -22 3 -29 16 -10 17 -9 21 4 21 8 0 15 4 15 9 0 5 10
12 23 16 21 6 21 7 -8 16 -20 6 -31 5 -34 -2 -2 -6 -18 5 -37 25 -19 21 -34
30 -34 22z"/>
<path d="M1084 1704 c3 -9 6 -19 6 -22 0 -9 20 21 20 31 0 4 -7 7 -16 7 -11 0
-14 -5 -10 -16z"/>
<path d="M1285 1660 c-3 -5 1 -10 9 -10 9 0 16 5 16 10 0 6 -4 10 -9 10 -6 0
-13 -4 -16 -10z"/>
<path d="M1183 1542 c-13 -2 -23 -7 -23 -12 0 -16 15 -18 39 -6 26 15 18 24
-16 18z"/>
<path d="M6667 1371 c-9 -16 -17 -41 -17 -56 0 -27 0 -28 53 -21 51 7 77 20
64 32 -3 4 -24 2 -47 -4 -44 -11 -46 -9 -25 28 8 14 14 31 15 38 0 22 -25 12
-43 -17z"/>
<path d="M6560 1308 c-12 -13 -29 -35 -38 -50 -20 -34 -30 -35 -34 -5 -2 12
-10 22 -18 22 -16 0 -15 -47 1 -53 5 -2 7 -7 4 -12 -7 -11 32 -43 44 -35 6 3
11 17 11 30 0 34 14 38 38 10 25 -28 57 -33 66 -9 3 9 2 12 -5 8 -6 -3 -24 6
-39 21 -23 23 -27 32 -19 47 5 10 14 16 20 13 5 -4 9 1 9 9 0 26 -18 27 -40 4z"/>
<path d="M1593 1251 c-18 -10 -39 -24 -47 -30 -7 -6 -21 -9 -30 -5 -9 3 -16 2
-16 -4 0 -14 32 -25 40 -13 3 6 28 15 55 21 60 13 80 24 71 39 -10 16 -36 13
-73 -8z"/>
<path d="M1871 1209 c-40 -36 -35 -45 13 -29 28 9 36 17 36 36 0 31 -9 30 -49
-7z"/>
<path d="M1618 1213 c-29 -4 -39 -23 -13 -23 8 0 15 -4 15 -10 0 -5 -4 -10 -9
-10 -6 0 -13 5 -16 10 -8 13 -35 13 -35 1 0 -8 111 -55 178 -76 33 -10 27 7
-12 33 -21 15 -33 29 -29 38 3 8 9 11 14 8 13 -8 11 10 -3 24 -12 12 -36 13
-90 5z m62 -33 c0 -21 -24 -28 -35 -10 -8 14 3 30 21 30 8 0 14 -9 14 -20z"/>
<path d="M6412 1154 c2 -14 -3 -19 -19 -18 -18 0 -23 -5 -23 -23 0 -23 -2 -24
-45 -17 -49 7 -75 -5 -75 -37 0 -40 49 -41 88 -2 7 7 20 13 28 13 8 0 23 8 33
18 36 32 48 40 66 43 22 5 31 25 13 27 -7 1 -26 4 -41 8 -24 6 -28 4 -25 -12z
m-112 -94 c0 -5 -4 -10 -10 -10 -5 0 -10 5 -10 10 0 6 5 10 10 10 6 0 10 -4
10 -10z"/>
<path d="M1773 1148 c-2 -5 1 -8 6 -8 6 0 11 -7 11 -15 0 -12 4 -13 25 -3 14
6 25 16 25 22 0 12 -59 15 -67 4z"/>
<path d="M6140 1092 c-8 -3 -17 -8 -20 -11 -11 -13 -71 -52 -95 -61 -31 -12
-23 -34 9 -26 18 4 25 -2 38 -32 24 -53 34 -65 47 -58 8 5 6 16 -5 37 -8 17
-14 32 -12 34 2 1 14 8 27 15 22 11 23 13 7 22 -12 7 -22 6 -29 -1 -6 -6 -18
-11 -26 -11 -19 0 9 27 57 55 17 11 32 23 32 27 0 11 -14 16 -30 10z"/>
<path d="M6196 1045 c14 -22 15 -25 1 -25 -17 0 -47 -26 -47 -41 0 -5 9 -9 20
-9 11 0 20 7 20 15 0 18 27 20 32 3 2 -6 11 -9 20 -5 14 5 14 10 -4 46 -13 27
-27 41 -39 41 -18 0 -19 -1 -3 -25z"/>
<path d="M2527 970 c-3 -11 -1 -23 4 -26 12 -7 12 -44 0 -44 -6 0 -12 4 -15 9
-7 10 -56 -9 -56 -21 0 -5 -13 -8 -30 -8 -40 0 -38 -16 3 -23 17 -4 47 -9 65
-13 26 -5 32 -3 32 10 0 10 11 19 30 23 17 3 30 9 30 14 0 4 9 17 20 27 18 16
18 20 4 40 -12 17 -21 20 -47 16 -24 -4 -28 -3 -17 5 13 9 13 11 -1 11 -9 0
-19 -9 -22 -20z m63 -39 c0 -5 -7 -12 -16 -15 -14 -5 -15 -4 -4 9 14 17 20 19
20 6z"/>
<path d="M2640 960 c0 -6 7 -10 15 -10 8 0 15 2 15 4 0 2 -7 6 -15 10 -8 3
-15 1 -15 -4z"/>
<path d="M5906 952 c-3 -5 8 -16 25 -26 27 -16 28 -19 14 -39 -8 -12 -15 -27
-15 -34 0 -22 28 -14 36 10 3 12 13 29 21 38 12 15 10 19 -22 38 -39 23 -51
25 -59 13z"/>
</g>
</svg>
